<svg xmlns="http://www.w3.org/2000/svg" width="525" viewBox="0 0 525 525" height="525" version="1.0"><defs><clipPath id="a"><path d="M 65 8 L 459 8 L 459 413.214844 L 65 413.214844 Z M 65 8"/></clipPath></defs><g clip-path="url(#a)"><path fill="#FF3152" d="M 259.796875 413.214844 C 154.519531 413.214844 69.257812 326.222656 65.34375 214.582031 C 62.296875 127.007812 105.21875 63.214844 189.175781 30.15625 C 223.398438 16.671875 302.71875 0.289062 313.59375 12.902344 L 325.773438 27.402344 L 309.097656 35.8125 L 306.632812 36.246094 C 315.324219 37.230469 323.898438 38.851562 332.351562 41.113281 C 340.800781 43.375 349.039062 46.25 357.0625 49.738281 C 365.085938 53.226562 372.808594 57.289062 380.222656 61.929688 C 387.640625 66.570312 394.671875 71.734375 401.320312 77.421875 C 406.070312 81.839844 410.5625 86.503906 414.804688 91.410156 C 419.046875 96.3125 423.011719 101.433594 426.699219 106.769531 C 430.386719 112.105469 433.773438 117.625 436.863281 123.328125 C 439.949219 129.03125 442.71875 134.882812 445.171875 140.886719 C 447.625 146.890625 449.746094 153.011719 451.535156 159.242188 C 453.324219 165.476562 454.769531 171.789062 455.875 178.179688 C 456.980469 184.570312 457.734375 191 458.140625 197.472656 C 458.546875 203.945312 458.605469 210.421875 458.308594 216.902344 C 458.292969 220.113281 458.195312 223.320312 458.023438 226.527344 C 457.851562 229.734375 457.597656 232.933594 457.269531 236.128906 C 456.941406 239.324219 456.53125 242.507812 456.046875 245.683594 C 455.5625 248.855469 455 252.015625 454.359375 255.164062 C 453.722656 258.3125 453.007812 261.441406 452.214844 264.554688 C 451.421875 267.664062 450.554688 270.757812 449.613281 273.824219 C 448.667969 276.894531 447.652344 279.941406 446.558594 282.960938 C 445.46875 285.980469 444.304688 288.972656 443.066406 291.9375 C 441.828125 294.898438 440.519531 297.832031 439.136719 300.730469 C 437.757812 303.628906 436.304688 306.492188 434.785156 309.320312 C 433.265625 312.148438 431.675781 314.941406 430.019531 317.691406 C 428.359375 320.441406 426.636719 323.152344 424.847656 325.816406 C 423.058594 328.484375 421.207031 331.105469 419.289062 333.683594 C 417.371094 336.257812 415.394531 338.785156 413.351562 341.265625 C 411.3125 343.746094 409.210938 346.175781 407.050781 348.550781 C 404.894531 350.929688 402.675781 353.253906 400.402344 355.519531 C 398.132812 357.789062 395.804688 360.003906 393.425781 362.160156 C 391.042969 364.3125 388.609375 366.410156 386.128906 368.445312 C 383.644531 370.484375 381.113281 372.457031 378.535156 374.371094 C 375.953125 376.285156 373.332031 378.132812 370.660156 379.917969 C 367.992188 381.703125 365.277344 383.421875 362.523438 385.074219 C 359.769531 386.726562 356.980469 388.3125 354.148438 389.828125 C 351.316406 391.34375 348.449219 392.792969 345.546875 394.167969 C 342.648438 395.546875 339.714844 396.851562 336.746094 398.082031 C 333.78125 399.316406 330.789062 400.476562 327.765625 401.5625 C 324.746094 402.652344 321.699219 403.664062 318.625 404.601562 C 315.554688 405.539062 312.460938 406.402344 309.347656 407.191406 C 306.234375 407.976562 303.101562 408.6875 299.953125 409.324219 C 296.804688 409.957031 293.644531 410.515625 290.46875 410.996094 C 287.292969 411.476562 284.109375 411.878906 280.914062 412.203125 C 277.71875 412.527344 274.515625 412.773438 271.308594 412.941406 C 268.101562 413.109375 264.890625 413.203125 261.679688 413.214844 Z M 230.792969 47.699219 C 221.777344 49.753906 212.933594 52.394531 204.269531 55.628906 C 195.605469 58.863281 187.195312 62.660156 179.039062 67.019531 C 170.882812 71.378906 163.050781 76.261719 155.550781 81.667969 C 148.046875 87.074219 140.9375 92.957031 134.222656 99.316406 C 130.671875 103.113281 127.332031 107.082031 124.195312 111.222656 C 121.0625 115.367188 118.152344 119.660156 115.464844 124.105469 C 112.777344 128.550781 110.328125 133.125 108.113281 137.828125 C 105.902344 142.527344 103.941406 147.332031 102.230469 152.234375 C 100.515625 157.140625 99.0625 162.121094 97.871094 167.175781 C 96.675781 172.230469 95.75 177.335938 95.085938 182.488281 C 94.425781 187.640625 94.03125 192.816406 93.90625 198.007812 C 93.78125 203.203125 93.929688 208.386719 94.34375 213.566406 C 97.679688 309.546875 170.472656 384.214844 260.957031 384.214844 C 263.691406 384.214844 266.429688 384.144531 269.160156 384.007812 C 271.894531 383.875 274.625 383.671875 277.347656 383.402344 C 280.070312 383.132812 282.789062 382.796875 285.496094 382.398438 C 288.203125 381.996094 290.898438 381.527344 293.582031 380.996094 C 296.269531 380.464844 298.9375 379.867188 301.59375 379.203125 C 304.25 378.539062 306.886719 377.8125 309.507812 377.023438 C 312.128906 376.230469 314.726562 375.375 317.304688 374.457031 C 319.882812 373.539062 322.4375 372.558594 324.96875 371.515625 C 327.5 370.472656 330.003906 369.367188 332.480469 368.203125 C 334.957031 367.039062 337.40625 365.8125 339.820312 364.53125 C 342.238281 363.246094 344.621094 361.902344 346.972656 360.503906 C 349.324219 359.101562 351.640625 357.644531 353.921875 356.128906 C 356.203125 354.617188 358.445312 353.050781 360.648438 351.425781 C 362.851562 349.804688 365.015625 348.128906 367.136719 346.398438 C 369.261719 344.671875 371.339844 342.890625 373.375 341.0625 C 375.410156 339.230469 377.398438 337.355469 379.34375 335.425781 C 381.289062 333.5 383.183594 331.527344 385.03125 329.507812 C 386.878906 327.488281 388.675781 325.425781 390.421875 323.320312 C 392.167969 321.210938 393.863281 319.0625 395.507812 316.875 C 397.148438 314.683594 398.734375 312.457031 400.269531 310.1875 C 401.800781 307.921875 403.28125 305.621094 404.699219 303.28125 C 406.121094 300.941406 407.484375 298.570312 408.789062 296.164062 C 410.097656 293.757812 411.34375 291.320312 412.527344 288.855469 C 413.714844 286.390625 414.839844 283.894531 415.90625 281.375 C 416.96875 278.851562 417.972656 276.308594 418.914062 273.738281 C 419.855469 271.167969 420.730469 268.574219 421.546875 265.964844 C 422.359375 263.351562 423.109375 260.71875 423.796875 258.070312 C 424.484375 255.421875 425.105469 252.753906 425.660156 250.074219 C 426.214844 247.394531 426.707031 244.703125 427.128906 242 C 427.554688 239.296875 427.914062 236.585938 428.207031 233.863281 C 428.5 231.140625 428.722656 228.414062 428.882812 225.683594 C 429.042969 222.953125 429.136719 220.21875 429.160156 217.480469 C 429.441406 212.03125 429.429688 206.582031 429.121094 201.132812 C 428.8125 195.683594 428.210938 190.269531 427.316406 184.886719 C 426.421875 179.5 425.238281 174.183594 423.769531 168.925781 C 422.300781 163.671875 420.550781 158.511719 418.523438 153.445312 C 416.496094 148.378906 414.199219 143.433594 411.636719 138.617188 C 409.074219 133.796875 406.257812 129.132812 403.191406 124.617188 C 400.125 120.105469 396.820312 115.769531 393.285156 111.613281 C 389.75 107.457031 386 103.503906 382.035156 99.75 C 349.554688 70.898438 301.558594 58.863281 247.179688 65.246094 L 235.289062 66.695312 L 231.519531 55.238281 C 230.875 53.988281 230.476562 52.664062 230.324219 51.261719 C 230.175781 49.859375 230.285156 48.480469 230.648438 47.121094 Z M 230.792969 47.699219"/></g><path fill="#FF3152" d="M 207.59375 191.671875 C 206.730469 191.671875 205.867188 191.628906 205.007812 191.546875 C 204.144531 191.460938 203.292969 191.335938 202.445312 191.164062 C 201.597656 190.996094 200.757812 190.789062 199.933594 190.535156 C 199.105469 190.285156 198.292969 189.996094 197.492188 189.664062 C 196.695312 189.332031 195.914062 188.964844 195.152344 188.558594 C 194.390625 188.148438 193.648438 187.707031 192.929688 187.226562 C 192.210938 186.746094 191.519531 186.230469 190.851562 185.683594 C 190.183594 185.136719 189.542969 184.554688 188.933594 183.945312 C 188.320312 183.332031 187.742188 182.695312 187.191406 182.023438 C 186.644531 181.355469 186.128906 180.664062 185.648438 179.945312 C 185.171875 179.226562 184.726562 178.488281 184.320312 177.722656 C 183.910156 176.960938 183.542969 176.183594 183.210938 175.382812 C 182.878906 174.585938 182.589844 173.773438 182.339844 172.945312 C 182.089844 172.117188 181.878906 171.28125 181.710938 170.433594 C 181.539062 169.585938 181.414062 168.730469 181.328125 167.871094 C 181.246094 167.011719 181.203125 166.148438 181.203125 165.285156 C 181.203125 164.421875 181.246094 163.558594 181.328125 162.699219 C 181.414062 161.839844 181.539062 160.984375 181.710938 160.136719 C 181.878906 159.289062 182.089844 158.453125 182.339844 157.625 C 182.589844 156.796875 182.878906 155.984375 183.210938 155.1875 C 183.542969 154.386719 183.910156 153.609375 184.320312 152.847656 C 184.726562 152.085938 185.171875 151.34375 185.648438 150.625 C 186.128906 149.90625 186.644531 149.214844 187.191406 148.546875 C 187.742188 147.878906 188.320312 147.238281 188.933594 146.625 C 189.542969 146.015625 190.183594 145.433594 190.851562 144.886719 C 191.519531 144.339844 192.210938 143.824219 192.929688 143.34375 C 193.648438 142.863281 194.390625 142.421875 195.152344 142.011719 C 195.914062 141.605469 196.695312 141.238281 197.492188 140.90625 C 198.292969 140.574219 199.105469 140.285156 199.933594 140.035156 C 200.757812 139.78125 201.597656 139.574219 202.445312 139.40625 C 203.292969 139.234375 204.144531 139.109375 205.007812 139.023438 C 205.867188 138.941406 206.730469 138.898438 207.59375 138.898438 C 208.457031 138.898438 209.320312 138.941406 210.179688 139.023438 C 211.039062 139.109375 211.894531 139.234375 212.742188 139.40625 C 213.589844 139.574219 214.425781 139.78125 215.253906 140.035156 C 216.082031 140.285156 216.894531 140.574219 217.691406 140.90625 C 218.492188 141.238281 219.273438 141.605469 220.035156 142.011719 C 220.796875 142.421875 221.535156 142.863281 222.253906 143.34375 C 222.972656 143.824219 223.667969 144.339844 224.335938 144.886719 C 225.003906 145.433594 225.644531 146.015625 226.253906 146.625 C 226.867188 147.238281 227.445312 147.878906 227.992188 148.546875 C 228.542969 149.214844 229.054688 149.90625 229.535156 150.625 C 230.015625 151.34375 230.460938 152.082031 230.867188 152.847656 C 231.277344 153.609375 231.644531 154.386719 231.976562 155.1875 C 232.304688 155.984375 232.597656 156.796875 232.847656 157.625 C 233.097656 158.453125 233.308594 159.289062 233.476562 160.136719 C 233.644531 160.984375 233.773438 161.839844 233.855469 162.699219 C 233.941406 163.558594 233.984375 164.421875 233.984375 165.285156 C 233.984375 166.148438 233.941406 167.011719 233.855469 167.871094 C 233.773438 168.730469 233.644531 169.585938 233.476562 170.433594 C 233.308594 171.28125 233.097656 172.117188 232.847656 172.945312 C 232.597656 173.773438 232.304688 174.585938 231.976562 175.382812 C 231.644531 176.183594 231.277344 176.960938 230.867188 177.722656 C 230.460938 178.488281 230.015625 179.226562 229.535156 179.945312 C 229.054688 180.664062 228.542969 181.355469 227.992188 182.023438 C 227.445312 182.695312 226.867188 183.332031 226.253906 183.945312 C 225.644531 184.554688 225.003906 185.136719 224.335938 185.683594 C 223.667969 186.230469 222.972656 186.746094 222.253906 187.226562 C 221.535156 187.707031 220.796875 188.148438 220.035156 188.558594 C 219.273438 188.964844 218.492188 189.332031 217.691406 189.664062 C 216.894531 189.996094 216.082031 190.285156 215.253906 190.535156 C 214.425781 190.789062 213.589844 190.996094 212.742188 191.164062 C 211.894531 191.335938 211.039062 191.460938 210.179688 191.546875 C 209.320312 191.628906 208.457031 191.671875 207.59375 191.671875 Z M 207.59375 162.675781 C 207.246094 162.675781 206.914062 162.742188 206.59375 162.875 C 206.273438 163.007812 205.992188 163.195312 205.746094 163.441406 C 205.503906 163.683594 205.3125 163.964844 205.183594 164.285156 C 205.050781 164.605469 204.984375 164.9375 204.984375 165.285156 C 204.984375 168.183594 210.203125 168.183594 210.058594 165.285156 C 210.058594 164.953125 209.996094 164.628906 209.875 164.320312 C 209.75 164.007812 209.574219 163.730469 209.347656 163.488281 C 209.117188 163.246094 208.851562 163.054688 208.546875 162.914062 C 208.246094 162.773438 207.925781 162.695312 207.59375 162.675781 Z M 207.59375 162.675781"/><path fill="#FF3152" d="M 319.683594 191.671875 C 318.816406 191.671875 317.957031 191.628906 317.097656 191.546875 C 316.234375 191.460938 315.382812 191.335938 314.535156 191.164062 C 313.6875 190.996094 312.847656 190.789062 312.023438 190.535156 C 311.195312 190.285156 310.382812 189.996094 309.582031 189.664062 C 308.785156 189.332031 308.003906 188.964844 307.242188 188.558594 C 306.480469 188.148438 305.738281 187.707031 305.019531 187.226562 C 304.300781 186.746094 303.609375 186.230469 302.941406 185.683594 C 302.273438 185.136719 301.632812 184.554688 301.019531 183.945312 C 300.410156 183.332031 299.832031 182.695312 299.28125 182.023438 C 298.734375 181.355469 298.21875 180.664062 297.738281 179.945312 C 297.257812 179.226562 296.816406 178.488281 296.40625 177.722656 C 296 176.960938 295.632812 176.183594 295.300781 175.382812 C 294.96875 174.585938 294.679688 173.773438 294.429688 172.945312 C 294.175781 172.117188 293.96875 171.28125 293.796875 170.433594 C 293.628906 169.585938 293.503906 168.730469 293.417969 167.871094 C 293.332031 167.011719 293.292969 166.148438 293.292969 165.285156 C 293.292969 164.421875 293.332031 163.558594 293.417969 162.699219 C 293.503906 161.839844 293.628906 160.984375 293.796875 160.136719 C 293.96875 159.289062 294.175781 158.453125 294.429688 157.625 C 294.679688 156.796875 294.96875 155.984375 295.300781 155.1875 C 295.632812 154.386719 296 153.609375 296.40625 152.847656 C 296.816406 152.085938 297.257812 151.34375 297.738281 150.625 C 298.21875 149.90625 298.734375 149.214844 299.28125 148.546875 C 299.832031 147.878906 300.410156 147.238281 301.019531 146.625 C 301.632812 146.015625 302.273438 145.433594 302.941406 144.886719 C 303.609375 144.339844 304.300781 143.824219 305.019531 143.34375 C 305.738281 142.863281 306.480469 142.421875 307.242188 142.011719 C 308.003906 141.605469 308.785156 141.238281 309.582031 140.90625 C 310.382812 140.574219 311.195312 140.285156 312.023438 140.035156 C 312.847656 139.78125 313.6875 139.574219 314.535156 139.40625 C 315.382812 139.234375 316.234375 139.109375 317.097656 139.023438 C 317.957031 138.941406 318.816406 138.898438 319.683594 138.898438 C 320.546875 138.898438 321.410156 138.941406 322.269531 139.023438 C 323.128906 139.109375 323.984375 139.234375 324.832031 139.40625 C 325.679688 139.574219 326.515625 139.78125 327.34375 140.035156 C 328.171875 140.285156 328.984375 140.574219 329.78125 140.90625 C 330.582031 141.238281 331.359375 141.605469 332.125 142.011719 C 332.886719 142.421875 333.625 142.863281 334.34375 143.34375 C 335.0625 143.824219 335.757812 144.339844 336.425781 144.886719 C 337.09375 145.433594 337.734375 146.015625 338.34375 146.625 C 338.953125 147.238281 339.535156 147.878906 340.082031 148.546875 C 340.632812 149.214844 341.144531 149.90625 341.625 150.625 C 342.105469 151.34375 342.550781 152.082031 342.957031 152.847656 C 343.363281 153.609375 343.734375 154.386719 344.066406 155.1875 C 344.394531 155.984375 344.6875 156.796875 344.9375 157.625 C 345.1875 158.453125 345.398438 159.289062 345.566406 160.136719 C 345.734375 160.984375 345.863281 161.839844 345.945312 162.699219 C 346.03125 163.558594 346.074219 164.421875 346.074219 165.285156 C 346.074219 166.148438 346.03125 167.011719 345.945312 167.871094 C 345.863281 168.730469 345.734375 169.585938 345.566406 170.433594 C 345.398438 171.28125 345.1875 172.117188 344.9375 172.945312 C 344.6875 173.773438 344.394531 174.585938 344.066406 175.382812 C 343.734375 176.183594 343.363281 176.960938 342.957031 177.722656 C 342.550781 178.488281 342.105469 179.226562 341.625 179.945312 C 341.144531 180.664062 340.632812 181.355469 340.082031 182.023438 C 339.535156 182.695312 338.953125 183.332031 338.34375 183.945312 C 337.734375 184.554688 337.09375 185.136719 336.425781 185.683594 C 335.757812 186.230469 335.0625 186.746094 334.34375 187.226562 C 333.625 187.707031 332.886719 188.148438 332.125 188.558594 C 331.359375 188.964844 330.582031 189.332031 329.78125 189.664062 C 328.984375 189.996094 328.171875 190.285156 327.34375 190.535156 C 326.515625 190.789062 325.679688 190.996094 324.832031 191.164062 C 323.984375 191.335938 323.128906 191.460938 322.269531 191.546875 C 321.410156 191.628906 320.546875 191.671875 319.683594 191.671875 Z M 319.683594 162.675781 C 319.335938 162.675781 319.003906 162.742188 318.683594 162.875 C 318.363281 163.007812 318.082031 163.195312 317.835938 163.441406 C 317.59375 163.683594 317.402344 163.964844 317.269531 164.285156 C 317.136719 164.605469 317.074219 164.9375 317.074219 165.285156 C 317.074219 168.183594 322.292969 168.183594 322.148438 165.285156 C 322.148438 164.953125 322.085938 164.628906 321.964844 164.320312 C 321.839844 164.007812 321.664062 163.730469 321.433594 163.488281 C 321.207031 163.246094 320.941406 163.054688 320.636719 162.914062 C 320.335938 162.773438 320.015625 162.695312 319.683594 162.675781 Z M 319.683594 162.675781"/><path fill="#FF3152" d="M 342.449219 297.222656 C 340.945312 297.234375 339.476562 297.019531 338.039062 296.570312 C 336.605469 296.125 335.269531 295.472656 334.039062 294.613281 C 284.589844 259.671875 237.320312 259.671875 189.03125 294.613281 C 188.261719 295.175781 187.441406 295.65625 186.578125 296.058594 C 185.710938 296.457031 184.8125 296.769531 183.886719 296.992188 C 182.960938 297.21875 182.019531 297.347656 181.066406 297.386719 C 180.113281 297.425781 179.164062 297.371094 178.222656 297.222656 C 177.277344 297.074219 176.359375 296.835938 175.464844 296.507812 C 174.570312 296.175781 173.714844 295.765625 172.898438 295.265625 C 172.085938 294.769531 171.328125 294.199219 170.625 293.550781 C 169.925781 292.902344 169.292969 292.195312 168.730469 291.425781 C 168.171875 290.652344 167.6875 289.835938 167.289062 288.96875 C 166.886719 288.101562 166.574219 287.207031 166.351562 286.277344 C 166.128906 285.351562 165.996094 284.410156 165.957031 283.457031 C 165.917969 282.503906 165.972656 281.554688 166.121094 280.613281 C 166.269531 279.671875 166.507812 278.753906 166.839844 277.855469 C 167.167969 276.960938 167.582031 276.105469 168.078125 275.292969 C 168.574219 274.480469 169.148438 273.722656 169.796875 273.019531 C 170.441406 272.320312 171.152344 271.6875 171.921875 271.125 C 229.925781 228.644531 290.246094 228.644531 350.277344 271.125 C 350.871094 271.566406 351.425781 272.050781 351.945312 272.578125 C 352.464844 273.105469 352.941406 273.667969 353.371094 274.269531 C 353.804688 274.867188 354.191406 275.5 354.527344 276.15625 C 354.863281 276.816406 355.144531 277.496094 355.378906 278.199219 C 355.609375 278.898438 355.789062 279.613281 355.910156 280.34375 C 356.03125 281.074219 356.097656 281.808594 356.109375 282.546875 C 356.121094 283.285156 356.074219 284.023438 355.972656 284.753906 C 355.871094 285.488281 355.710938 286.207031 355.5 286.914062 C 355.289062 287.625 355.023438 288.3125 354.703125 288.980469 C 354.386719 289.644531 354.019531 290.285156 353.605469 290.898438 C 353.1875 291.507812 352.730469 292.085938 352.226562 292.625 C 351.722656 293.167969 351.179688 293.667969 350.597656 294.125 C 350.019531 294.585938 349.40625 294.996094 348.765625 295.359375 C 348.121094 295.726562 347.453125 296.039062 346.761719 296.300781 C 346.070312 296.566406 345.363281 296.773438 344.640625 296.925781 C 343.917969 297.082031 343.1875 297.179688 342.449219 297.222656 Z M 342.449219 297.222656"/><g fill="#545454"><g><g><path d="M 11.359375 -23.46875 L 11.359375 0 L 2.75 0 L 2.75 -37.8125 L 11.359375 -37.8125 L 26.390625 -14.34375 L 26.484375 -14.34375 L 26.484375 -37.8125 L 35.109375 -37.8125 L 35.109375 0 L 26.484375 0 L 11.453125 -23.46875 Z M 11.359375 -23.46875" transform="translate(20.96 493.905)"/></g></g></g><g fill="#545454"><g><g><path d="M 1.046875 -18.921875 C 1.046875 -24.390625 2.910156 -29.019531 6.640625 -32.8125 C 10.367188 -36.601562 14.863281 -38.5 20.125 -38.5 C 25.40625 -38.5 29.894531 -36.609375 33.59375 -32.828125 C 37.289062 -29.054688 39.140625 -24.421875 39.140625 -18.921875 C 39.140625 -13.390625 37.320312 -8.738281 33.6875 -4.96875 C 30.050781 -1.195312 25.53125 0.6875 20.125 0.6875 C 14.59375 0.6875 10.03125 -1.179688 6.4375 -4.921875 C 2.84375 -8.671875 1.046875 -13.335938 1.046875 -18.921875 Z M 10.359375 -18.921875 C 10.359375 -16.941406 10.660156 -15.132812 11.265625 -13.5 C 11.878906 -11.863281 12.945312 -10.476562 14.46875 -9.34375 C 16 -8.21875 17.882812 -7.65625 20.125 -7.65625 C 23.332031 -7.65625 25.75 -8.753906 27.375 -10.953125 C 29.007812 -13.148438 29.828125 -15.804688 29.828125 -18.921875 C 29.828125 -22.015625 28.992188 -24.664062 27.328125 -26.875 C 25.671875 -29.09375 23.269531 -30.203125 20.125 -30.203125 C 17 -30.203125 14.585938 -29.09375 12.890625 -26.875 C 11.203125 -24.664062 10.359375 -22.015625 10.359375 -18.921875 Z M 10.359375 -18.921875" transform="translate(60.914 493.905)"/></g></g></g><g fill="#545454"><g><g><path d="M 2.75 -37.8125 L 16.546875 -37.8125 C 20.390625 -37.8125 23.503906 -36.816406 25.890625 -34.828125 C 28.273438 -32.835938 29.46875 -29.945312 29.46875 -26.15625 C 29.46875 -22.375 28.257812 -19.40625 25.84375 -17.25 C 23.4375 -15.09375 20.335938 -14.015625 16.546875 -14.015625 L 11.359375 -14.015625 L 11.359375 0 L 2.75 0 Z M 11.359375 -20.890625 L 13.796875 -20.890625 C 15.722656 -20.890625 17.300781 -21.28125 18.53125 -22.0625 C 19.769531 -22.84375 20.390625 -24.117188 20.390625 -25.890625 C 20.390625 -27.691406 19.769531 -28.984375 18.53125 -29.765625 C 17.300781 -30.546875 15.722656 -30.9375 13.796875 -30.9375 L 11.359375 -30.9375 Z M 11.359375 -20.890625" transform="translate(117.82 493.905)"/></g></g></g><g fill="#545454"><g><g><path d="M 1.046875 -18.921875 C 1.046875 -24.390625 2.910156 -29.019531 6.640625 -32.8125 C 10.367188 -36.601562 14.863281 -38.5 20.125 -38.5 C 25.40625 -38.5 29.894531 -36.609375 33.59375 -32.828125 C 37.289062 -29.054688 39.140625 -24.421875 39.140625 -18.921875 C 39.140625 -13.390625 37.320312 -8.738281 33.6875 -4.96875 C 30.050781 -1.195312 25.53125 0.6875 20.125 0.6875 C 14.59375 0.6875 10.03125 -1.179688 6.4375 -4.921875 C 2.84375 -8.671875 1.046875 -13.335938 1.046875 -18.921875 Z M 10.359375 -18.921875 C 10.359375 -16.941406 10.660156 -15.132812 11.265625 -13.5 C 11.878906 -11.863281 12.945312 -10.476562 14.46875 -9.34375 C 16 -8.21875 17.882812 -7.65625 20.125 -7.65625 C 23.332031 -7.65625 25.75 -8.753906 27.375 -10.953125 C 29.007812 -13.148438 29.828125 -15.804688 29.828125 -18.921875 C 29.828125 -22.015625 28.992188 -24.664062 27.328125 -26.875 C 25.671875 -29.09375 23.269531 -30.203125 20.125 -30.203125 C 17 -30.203125 14.585938 -29.09375 12.890625 -26.875 C 11.203125 -24.664062 10.359375 -22.015625 10.359375 -18.921875 Z M 10.359375 -18.921875" transform="translate(150.444 493.905)"/></g></g></g><g fill="#545454"><g><g><path d="M 16.6875 -38.5 C 18.726562 -38.5 20.726562 -38.195312 22.6875 -37.59375 C 24.644531 -37 26.09375 -36.414062 27.03125 -35.84375 L 28.40625 -34.921875 L 24.9375 -28.046875 C 24.65625 -28.234375 24.269531 -28.46875 23.78125 -28.75 C 23.289062 -29.039062 22.375 -29.429688 21.03125 -29.921875 C 19.6875 -30.410156 18.4375 -30.65625 17.28125 -30.65625 C 15.84375 -30.65625 14.734375 -30.347656 13.953125 -29.734375 C 13.171875 -29.128906 12.78125 -28.304688 12.78125 -27.265625 C 12.78125 -26.742188 12.960938 -26.257812 13.328125 -25.8125 C 13.703125 -25.375 14.332031 -24.898438 15.21875 -24.390625 C 16.101562 -23.890625 16.878906 -23.488281 17.546875 -23.1875 C 18.222656 -22.882812 19.265625 -22.425781 20.671875 -21.8125 C 23.109375 -20.769531 25.191406 -19.351562 26.921875 -17.5625 C 28.648438 -15.78125 29.515625 -13.757812 29.515625 -11.5 C 29.515625 -9.332031 29.125 -7.4375 28.34375 -5.8125 C 27.5625 -4.195312 26.488281 -2.929688 25.125 -2.015625 C 23.769531 -1.097656 22.265625 -0.421875 20.609375 0.015625 C 18.960938 0.460938 17.179688 0.6875 15.265625 0.6875 C 13.609375 0.6875 11.984375 0.515625 10.390625 0.171875 C 8.804688 -0.160156 7.476562 -0.578125 6.40625 -1.078125 C 5.34375 -1.578125 4.382812 -2.070312 3.53125 -2.5625 C 2.675781 -3.050781 2.050781 -3.460938 1.65625 -3.796875 L 1.046875 -4.3125 L 5.359375 -11.546875 C 5.722656 -11.242188 6.226562 -10.851562 6.875 -10.375 C 7.519531 -9.90625 8.65625 -9.269531 10.28125 -8.46875 C 11.914062 -7.675781 13.363281 -7.28125 14.625 -7.28125 C 18.257812 -7.28125 20.078125 -8.519531 20.078125 -11 C 20.078125 -11.519531 19.945312 -12 19.6875 -12.4375 C 19.425781 -12.882812 18.96875 -13.328125 18.3125 -13.765625 C 17.65625 -14.210938 17.070312 -14.566406 16.5625 -14.828125 C 16.0625 -15.085938 15.238281 -15.484375 14.09375 -16.015625 C 12.945312 -16.546875 12.097656 -16.953125 11.546875 -17.234375 C 9.253906 -18.359375 7.484375 -19.769531 6.234375 -21.46875 C 4.984375 -23.164062 4.359375 -24.992188 4.359375 -26.953125 C 4.359375 -30.335938 5.609375 -33.109375 8.109375 -35.265625 C 10.617188 -37.421875 13.476562 -38.5 16.6875 -38.5 Z M 16.6875 -38.5" transform="translate(192.734 493.905)"/></g></g></g><g fill="#545454"><g><g><path d="M 0.359375 -30.25 L 0.359375 -37.8125 L 26.953125 -37.8125 L 26.953125 -30.25 L 17.96875 -30.25 L 17.96875 0 L 9.34375 0 L 9.34375 -30.25 Z M 0.359375 -30.25" transform="translate(225.632 493.905)"/></g></g></g><g fill="#545454"><g><g><path d="M 16.6875 -38.5 C 18.726562 -38.5 20.726562 -38.195312 22.6875 -37.59375 C 24.644531 -37 26.09375 -36.414062 27.03125 -35.84375 L 28.40625 -34.921875 L 24.9375 -28.046875 C 24.65625 -28.234375 24.269531 -28.46875 23.78125 -28.75 C 23.289062 -29.039062 22.375 -29.429688 21.03125 -29.921875 C 19.6875 -30.410156 18.4375 -30.65625 17.28125 -30.65625 C 15.84375 -30.65625 14.734375 -30.347656 13.953125 -29.734375 C 13.171875 -29.128906 12.78125 -28.304688 12.78125 -27.265625 C 12.78125 -26.742188 12.960938 -26.257812 13.328125 -25.8125 C 13.703125 -25.375 14.332031 -24.898438 15.21875 -24.390625 C 16.101562 -23.890625 16.878906 -23.488281 17.546875 -23.1875 C 18.222656 -22.882812 19.265625 -22.425781 20.671875 -21.8125 C 23.109375 -20.769531 25.191406 -19.351562 26.921875 -17.5625 C 28.648438 -15.78125 29.515625 -13.757812 29.515625 -11.5 C 29.515625 -9.332031 29.125 -7.4375 28.34375 -5.8125 C 27.5625 -4.195312 26.488281 -2.929688 25.125 -2.015625 C 23.769531 -1.097656 22.265625 -0.421875 20.609375 0.015625 C 18.960938 0.460938 17.179688 0.6875 15.265625 0.6875 C 13.609375 0.6875 11.984375 0.515625 10.390625 0.171875 C 8.804688 -0.160156 7.476562 -0.578125 6.40625 -1.078125 C 5.34375 -1.578125 4.382812 -2.070312 3.53125 -2.5625 C 2.675781 -3.050781 2.050781 -3.460938 1.65625 -3.796875 L 1.046875 -4.3125 L 5.359375 -11.546875 C 5.722656 -11.242188 6.226562 -10.851562 6.875 -10.375 C 7.519531 -9.90625 8.65625 -9.269531 10.28125 -8.46875 C 11.914062 -7.675781 13.363281 -7.28125 14.625 -7.28125 C 18.257812 -7.28125 20.078125 -8.519531 20.078125 -11 C 20.078125 -11.519531 19.945312 -12 19.6875 -12.4375 C 19.425781 -12.882812 18.96875 -13.328125 18.3125 -13.765625 C 17.65625 -14.210938 17.070312 -14.566406 16.5625 -14.828125 C 16.0625 -15.085938 15.238281 -15.484375 14.09375 -16.015625 C 12.945312 -16.546875 12.097656 -16.953125 11.546875 -17.234375 C 9.253906 -18.359375 7.484375 -19.769531 6.234375 -21.46875 C 4.984375 -23.164062 4.359375 -24.992188 4.359375 -26.953125 C 4.359375 -30.335938 5.609375 -33.109375 8.109375 -35.265625 C 10.617188 -37.421875 13.476562 -38.5 16.6875 -38.5 Z M 16.6875 -38.5" transform="translate(255.047 493.905)"/></g></g></g><g fill="#545454"><g><g><path d="M 24.609375 -37.8125 L 24.609375 -30.25 L 11.359375 -30.25 L 11.359375 -22.734375 L 23.59375 -22.734375 L 23.59375 -15.171875 L 11.359375 -15.171875 L 11.359375 0 L 2.75 0 L 2.75 -37.8125 Z M 24.609375 -37.8125" transform="translate(302.562 493.905)"/></g></g></g><g fill="#545454"><g><g><path d="M 1.046875 -18.921875 C 1.046875 -24.390625 2.910156 -29.019531 6.640625 -32.8125 C 10.367188 -36.601562 14.863281 -38.5 20.125 -38.5 C 25.40625 -38.5 29.894531 -36.609375 33.59375 -32.828125 C 37.289062 -29.054688 39.140625 -24.421875 39.140625 -18.921875 C 39.140625 -13.390625 37.320312 -8.738281 33.6875 -4.96875 C 30.050781 -1.195312 25.53125 0.6875 20.125 0.6875 C 14.59375 0.6875 10.03125 -1.179688 6.4375 -4.921875 C 2.84375 -8.671875 1.046875 -13.335938 1.046875 -18.921875 Z M 10.359375 -18.921875 C 10.359375 -16.941406 10.660156 -15.132812 11.265625 -13.5 C 11.878906 -11.863281 12.945312 -10.476562 14.46875 -9.34375 C 16 -8.21875 17.882812 -7.65625 20.125 -7.65625 C 23.332031 -7.65625 25.75 -8.753906 27.375 -10.953125 C 29.007812 -13.148438 29.828125 -15.804688 29.828125 -18.921875 C 29.828125 -22.015625 28.992188 -24.664062 27.328125 -26.875 C 25.671875 -29.09375 23.269531 -30.203125 20.125 -30.203125 C 17 -30.203125 14.585938 -29.09375 12.890625 -26.875 C 11.203125 -24.664062 10.359375 -22.015625 10.359375 -18.921875 Z M 10.359375 -18.921875" transform="translate(330.649 493.905)"/></g></g></g><g fill="#545454"><g><g><path d="M 31.8125 -37.8125 L 31.8125 -13.421875 C 31.8125 -8.785156 30.554688 -5.273438 28.046875 -2.890625 C 25.535156 -0.503906 21.867188 0.6875 17.046875 0.6875 C 12.222656 0.6875 8.554688 -0.503906 6.046875 -2.890625 C 3.546875 -5.273438 2.296875 -8.785156 2.296875 -13.421875 L 2.296875 -37.8125 L 10.90625 -37.8125 L 10.90625 -15.953125 C 10.90625 -12.890625 11.382812 -10.765625 12.34375 -9.578125 C 13.3125 -8.390625 14.878906 -7.796875 17.046875 -7.796875 C 19.210938 -7.796875 20.773438 -8.390625 21.734375 -9.578125 C 22.703125 -10.765625 23.1875 -12.890625 23.1875 -15.953125 L 23.1875 -37.8125 Z M 31.8125 -37.8125" transform="translate(372.94 493.905)"/></g></g></g><g fill="#545454"><g><g><path d="M 11.359375 -23.46875 L 11.359375 0 L 2.75 0 L 2.75 -37.8125 L 11.359375 -37.8125 L 26.390625 -14.34375 L 26.484375 -14.34375 L 26.484375 -37.8125 L 35.109375 -37.8125 L 35.109375 0 L 26.484375 0 L 11.453125 -23.46875 Z M 11.359375 -23.46875" transform="translate(409.136 493.905)"/></g></g></g><g fill="#545454"><g><g><path d="M 2.75 -37.8125 L 13.703125 -37.8125 C 18.953125 -37.8125 23.441406 -36.015625 27.171875 -32.421875 C 30.898438 -28.828125 32.765625 -24.328125 32.765625 -18.921875 C 32.765625 -13.484375 30.90625 -8.96875 27.1875 -5.375 C 23.476562 -1.789062 18.984375 0 13.703125 0 L 2.75 0 Z M 11.359375 -7.703125 L 12.6875 -7.703125 C 15.84375 -7.703125 18.421875 -8.757812 20.421875 -10.875 C 22.421875 -13 23.4375 -15.664062 23.46875 -18.875 C 23.46875 -22.082031 22.460938 -24.753906 20.453125 -26.890625 C 18.453125 -29.035156 15.863281 -30.109375 12.6875 -30.109375 L 11.359375 -30.109375 Z M 11.359375 -7.703125" transform="translate(449.09 493.905)"/></g></g></g><g fill="#545454"><g><g><path d="M 5.046875 -12.375 L 3.9375 -39.40625 L 12.046875 -39.40625 L 10.953125 -12.375 Z M 7.96875 -9.8125 C 9.4375 -9.8125 10.679688 -9.296875 11.703125 -8.265625 C 12.734375 -7.242188 13.25 -6 13.25 -4.53125 C 13.25 -3.101562 12.734375 -1.875 11.703125 -0.84375 C 10.679688 0.175781 9.4375 0.6875 7.96875 0.6875 C 6.53125 0.6875 5.300781 0.175781 4.28125 -0.84375 C 3.257812 -1.875 2.75 -3.101562 2.75 -4.53125 C 2.75 -6 3.257812 -7.242188 4.28125 -8.265625 C 5.300781 -9.296875 6.53125 -9.8125 7.96875 -9.8125 Z M 7.96875 -9.8125" transform="translate(485.011 493.905)"/></g></g></g></svg>