<svg xmlns="http://www.w3.org/2000/svg" width="525" height="525" version="1.0"><defs><clipPath id="a"><path d="M.5 0h524v524H.5Zm0 0"/></clipPath></defs><g clip-path="url(#a)"><path d="M262.5 0C117.8 0 .5 117.3.5 262s117.3 262 262 262 262-117.3 262-262S407.2 0 262.5 0"/></g><path d="M273.754 96.12c18.469 0 35.235 3.453 50.297 10.36 15.063 6.898 27.988 15.835 38.781 26.812 10.79 10.98 19.098 23.277 24.922 36.89 5.832 13.606 8.75 27.211 8.75 40.813 0 12.054-3.695 24.156-11.078 36.312-7.387 12.149-17.742 23.078-31.062 32.797-13.313 9.719-29.305 17.594-47.97 23.625-18.655 6.024-39.163 9.031-61.515 9.031-11.656 0-23.902-1.164-36.734-3.5.781 8.368 3.207 15.563 7.281 21.594 4.082 6.024 9.235 10.977 15.453 14.86 6.227 3.886 13.274 6.757 21.14 8.609 7.876 1.844 15.993 2.766 24.36 2.766 9.32 0 18.305-.82 26.953-2.47 8.657-1.656 16.97-3.843 24.938-6.562a271.23 271.23 0 0 0 23.047-9.047 523.6 523.6 0 0 0 20.984-9.921c1.75-.383 3.254-.723 4.516-1.016 1.27-.29 2.488-.438 3.656-.438 0 0-.055 1.559-.156 4.672-.094 3.106-.14 7.48-.14 13.125 0 5.637-.048 12.438-.142 20.406a3220.67 3220.67 0 0 1-.437 26.532c.582.969.969 1.945 1.156 2.922.196.968.297 1.746.297 2.328 0 2.336-2.14 4.86-6.422 7.578-4.273 2.719-9.86 5.539-16.765 8.453-6.899 2.918-14.766 5.734-23.61 8.453a470.069 470.069 0 0 1-26.969 7.438c-9.136 2.238-17.984 3.988-26.546 5.25-8.555 1.257-16.032 1.89-22.438 1.89-21 0-41.367-3.648-61.094-10.937-19.73-7.281-37.226-17.723-52.484-31.328-15.262-13.614-27.46-30.141-36.594-49.578-9.136-19.438-13.703-41.305-13.703-65.61 0-25.469 4.367-49.328 13.11-71.578 8.75-22.258 21.046-41.648 36.89-58.172 15.844-16.531 34.75-29.555 56.719-39.078 21.969-9.52 46.172-14.281 72.61-14.281Zm-3.5 77.562c-7.969 0-15.308 1.703-22.015 5.11-6.711 3.398-12.836 8.257-18.375 14.578-5.543 6.312-10.356 13.89-14.438 22.734-4.074 8.844-7.375 18.61-9.906 29.297 20.02-3.5 36.64-7.191 49.86-11.078 13.218-3.883 23.812-7.817 31.78-11.797 7.97-3.988 13.602-7.973 16.907-11.953 3.312-3.988 4.969-7.832 4.969-11.531 0-3.5-1.313-6.801-3.938-9.907-2.625-3.113-5.887-5.836-9.781-8.171-3.887-2.333-8.117-4.13-12.688-5.391-4.562-1.258-8.687-1.89-12.375-1.89Zm0 0" fill="#FFF"/></svg>
