<svg xmlns="http://www.w3.org/2000/svg" width="192" viewBox="0 0 192 192" height="192" version="1.0"><path fill="#F89F0E" d="M 191.988281 96 C 191.988281 149.011719 149.011719 191.992188 96 191.992188 C 42.984375 191.992188 0.0117188 149.011719 0.0117188 96 C 0.0117188 42.988281 42.984375 0.0078125 96 0.0078125 C 149.011719 0.0078125 191.988281 42.988281 191.988281 96"/><path fill="#FCC907" d="M 170.207031 96 C 170.207031 136.984375 136.984375 170.207031 96 170.207031 C 55.015625 170.203125 21.785156 136.984375 21.785156 96 C 21.785156 55.015625 55.015625 21.789062 96 21.789062 C 136.984375 21.789062 170.207031 55.015625 170.207031 96"/><path fill="#FFFAA3" d="M 88.304688 155.199219 L 88.304688 141.414062 C 78.589844 140.988281 69.152344 138.371094 63.640625 135.175781 L 67.996094 118.203125 C 74.089844 121.527344 82.652344 124.578125 92.085938 124.578125 C 100.355469 124.578125 106.015625 121.394531 106.015625 115.59375 C 106.015625 110.074219 101.367188 106.59375 90.632812 102.96875 C 75.113281 97.738281 64.515625 90.488281 64.515625 76.410156 C 64.515625 63.644531 73.511719 53.632812 89.039062 50.585938 L 89.039062 36.800781 L 103.257812 36.800781 L 103.257812 49.566406 C 112.972656 50.007812 119.503906 52.03125 124.296875 54.363281 L 120.085938 70.757812 C 116.3125 69.160156 109.640625 65.820312 99.195312 65.820312 C 89.761719 65.820312 86.714844 69.878906 86.714844 73.941406 C 86.714844 78.730469 91.792969 81.777344 104.121094 86.421875 C 121.394531 92.515625 128.355469 100.503906 128.355469 113.554688 C 128.355469 126.476562 119.214844 137.5 102.523438 140.398438 L 102.523438 155.199219 L 88.304688 155.199219"/></svg>