<svg xmlns="http://www.w3.org/2000/svg" width="487.5" viewBox="0 0 487.5 76.5" height="76.5" version="1.0"><defs><clipPath id="a"><path d="M 442 13 L 485.667969 13 L 485.667969 65 L 442 65 Z M 442 13"/></clipPath></defs><g fill="#FF3152"><g><g><path d="M 55.78125 -22.34375 L 19.9375 -22.34375 C 19.9375 -18.875 21.0625 -16.304688 23.3125 -14.640625 C 25.5625 -12.972656 28 -12.140625 30.625 -12.140625 C 33.394531 -12.140625 35.582031 -12.507812 37.1875 -13.25 C 38.789062 -13.988281 40.617188 -15.445312 42.671875 -17.625 L 55 -11.46875 C 49.863281 -2.863281 41.320312 1.4375 29.375 1.4375 C 21.925781 1.4375 15.535156 -1.113281 10.203125 -6.21875 C 4.878906 -11.320312 2.21875 -17.46875 2.21875 -24.65625 C 2.21875 -31.851562 4.878906 -38.019531 10.203125 -43.15625 C 15.535156 -48.289062 21.925781 -50.859375 29.375 -50.859375 C 37.207031 -50.859375 43.582031 -48.59375 48.5 -44.0625 C 53.414062 -39.539062 55.875 -33.070312 55.875 -24.65625 C 55.875 -23.5 55.84375 -22.726562 55.78125 -22.34375 Z M 20.421875 -31.78125 L 39.203125 -31.78125 C 38.816406 -34.351562 37.804688 -36.328125 36.171875 -37.703125 C 34.535156 -39.085938 32.429688 -39.78125 29.859375 -39.78125 C 27.035156 -39.78125 24.785156 -39.039062 23.109375 -37.5625 C 21.441406 -36.09375 20.546875 -34.164062 20.421875 -31.78125 Z M 20.421875 -31.78125" transform="translate(1.334 64.17)"/></g></g></g><g fill="#FF3152"><g><g><path d="M 5.78125 0 L 5.78125 -49.421875 L 22.828125 -49.421875 L 22.828125 -42.28125 L 23.015625 -42.28125 C 23.148438 -42.539062 23.359375 -42.863281 23.640625 -43.25 C 23.929688 -43.632812 24.554688 -44.304688 25.515625 -45.265625 C 26.484375 -46.234375 27.515625 -47.101562 28.609375 -47.875 C 29.703125 -48.644531 31.113281 -49.332031 32.84375 -49.9375 C 34.582031 -50.550781 36.347656 -50.859375 38.140625 -50.859375 C 40.003906 -50.859375 41.832031 -50.597656 43.625 -50.078125 C 45.425781 -49.566406 46.75 -49.054688 47.59375 -48.546875 L 48.9375 -47.78125 L 41.8125 -33.328125 C 39.6875 -35.128906 36.726562 -36.03125 32.9375 -36.03125 C 30.882812 -36.03125 29.117188 -35.578125 27.640625 -34.671875 C 26.171875 -33.773438 25.128906 -32.679688 24.515625 -31.390625 C 23.898438 -30.109375 23.460938 -29.019531 23.203125 -28.125 C 22.953125 -27.226562 22.828125 -26.523438 22.828125 -26.015625 L 22.828125 0 Z M 5.78125 0" transform="translate(54.598 64.17)"/></g></g></g><g fill="#FF3152"><g><g><path d="M 9.15625 -6.109375 C 4.53125 -11.148438 2.21875 -17.332031 2.21875 -24.65625 C 2.21875 -31.976562 4.53125 -38.175781 9.15625 -43.25 C 13.78125 -48.320312 19.65625 -50.859375 26.78125 -50.859375 C 33.332031 -50.859375 38.726562 -48.804688 42.96875 -44.703125 L 42.96875 -49.421875 L 60.015625 -49.421875 L 60.015625 0 L 43.15625 0 L 43.15625 -5.59375 L 42.96875 -5.59375 C 38.726562 -0.90625 33.332031 1.4375 26.78125 1.4375 C 19.65625 1.4375 13.78125 -1.078125 9.15625 -6.109375 Z M 23.640625 -33.03125 C 21.429688 -30.851562 20.328125 -28.0625 20.328125 -24.65625 C 20.328125 -21.25 21.382812 -18.46875 23.5 -16.3125 C 25.625 -14.164062 28.421875 -13.09375 31.890625 -13.09375 C 35.222656 -13.09375 37.960938 -14.1875 40.109375 -16.375 C 42.265625 -18.5625 43.34375 -21.320312 43.34375 -24.65625 C 43.34375 -28.0625 42.234375 -30.851562 40.015625 -33.03125 C 37.804688 -35.21875 35.097656 -36.3125 31.890625 -36.3125 C 28.609375 -36.3125 25.859375 -35.21875 23.640625 -33.03125 Z M 23.640625 -33.03125" transform="translate(97.748 64.17)"/></g></g></g><g fill="#FF3152"><g><g><path d="M 32.078125 -36.890625 C 28.867188 -36.890625 26.109375 -35.703125 23.796875 -33.328125 C 21.484375 -30.953125 20.328125 -28.09375 20.328125 -24.75 C 20.328125 -21.351562 21.484375 -18.460938 23.796875 -16.078125 C 26.109375 -13.703125 28.867188 -12.515625 32.078125 -12.515625 C 33.617188 -12.515625 35.078125 -12.707031 36.453125 -13.09375 C 37.835938 -13.476562 38.851562 -13.863281 39.5 -14.25 L 40.359375 -14.828125 L 46.140625 -2.984375 C 45.691406 -2.660156 45.066406 -2.257812 44.265625 -1.78125 C 43.460938 -1.300781 41.628906 -0.644531 38.765625 0.1875 C 35.910156 1.019531 32.847656 1.4375 29.578125 1.4375 C 22.316406 1.4375 15.941406 -1.113281 10.453125 -6.21875 C 4.960938 -11.320312 2.21875 -17.4375 2.21875 -24.5625 C 2.21875 -31.757812 4.960938 -37.941406 10.453125 -43.109375 C 15.941406 -48.273438 22.316406 -50.859375 29.578125 -50.859375 C 32.847656 -50.859375 35.863281 -50.472656 38.625 -49.703125 C 41.382812 -48.929688 43.34375 -48.160156 44.5 -47.390625 L 46.140625 -46.234375 L 40.359375 -34.578125 C 38.242188 -36.117188 35.484375 -36.890625 32.078125 -36.890625 Z M 32.078125 -36.890625" transform="translate(180.196 64.17)"/></g></g></g><g fill="#FF3152"><g><g><path d="M 10.453125 -5.875 C 4.960938 -10.757812 2.21875 -17.019531 2.21875 -24.65625 C 2.21875 -32.300781 5.070312 -38.578125 10.78125 -43.484375 C 16.5 -48.398438 23.566406 -50.859375 31.984375 -50.859375 C 40.265625 -50.859375 47.242188 -48.382812 52.921875 -43.4375 C 58.609375 -38.5 61.453125 -32.238281 61.453125 -24.65625 C 61.453125 -17.082031 58.675781 -10.835938 53.125 -5.921875 C 47.570312 -1.015625 40.523438 1.4375 31.984375 1.4375 C 23.117188 1.4375 15.941406 -1 10.453125 -5.875 Z M 23.640625 -33.03125 C 21.429688 -30.851562 20.328125 -28.0625 20.328125 -24.65625 C 20.328125 -21.25 21.382812 -18.46875 23.5 -16.3125 C 25.625 -14.164062 28.421875 -13.09375 31.890625 -13.09375 C 35.222656 -13.09375 37.960938 -14.1875 40.109375 -16.375 C 42.265625 -18.5625 43.34375 -21.320312 43.34375 -24.65625 C 43.34375 -28.0625 42.234375 -30.851562 40.015625 -33.03125 C 37.804688 -35.21875 35.097656 -36.3125 31.890625 -36.3125 C 28.609375 -36.3125 25.859375 -35.21875 23.640625 -33.03125 Z M 23.640625 -33.03125" transform="translate(222.672 64.17)"/></g></g></g><g fill="#FF3152"><g><g><path d="M 5.78125 0 L 5.78125 -49.421875 L 22.828125 -49.421875 L 22.828125 -42.28125 L 23.015625 -42.28125 C 23.148438 -42.539062 23.359375 -42.863281 23.640625 -43.25 C 23.929688 -43.632812 24.554688 -44.304688 25.515625 -45.265625 C 26.484375 -46.234375 27.515625 -47.101562 28.609375 -47.875 C 29.703125 -48.644531 31.113281 -49.332031 32.84375 -49.9375 C 34.582031 -50.550781 36.347656 -50.859375 38.140625 -50.859375 C 40.003906 -50.859375 41.832031 -50.597656 43.625 -50.078125 C 45.425781 -49.566406 46.75 -49.054688 47.59375 -48.546875 L 48.9375 -47.78125 L 41.8125 -33.328125 C 39.6875 -35.128906 36.726562 -36.03125 32.9375 -36.03125 C 30.882812 -36.03125 29.117188 -35.578125 27.640625 -34.671875 C 26.171875 -33.773438 25.128906 -32.679688 24.515625 -31.390625 C 23.898438 -30.109375 23.460938 -29.019531 23.203125 -28.125 C 22.953125 -27.226562 22.828125 -26.523438 22.828125 -26.015625 L 22.828125 0 Z M 5.78125 0" transform="translate(281.522 64.17)"/></g></g></g><g fill="#FF3152"><g><g><path d="M 5.78125 0 L 5.78125 -49.421875 L 22.828125 -49.421875 L 22.828125 -44.21875 L 23.015625 -44.21875 C 27.453125 -48.644531 32.175781 -50.859375 37.1875 -50.859375 C 39.625 -50.859375 42.046875 -50.535156 44.453125 -49.890625 C 46.859375 -49.253906 49.171875 -48.257812 51.390625 -46.90625 C 53.609375 -45.5625 55.40625 -43.648438 56.78125 -41.171875 C 58.164062 -38.703125 58.859375 -35.832031 58.859375 -32.5625 L 58.859375 0 L 41.8125 0 L 41.8125 -27.9375 C 41.8125 -30.5 40.988281 -32.742188 39.34375 -34.671875 C 37.707031 -36.597656 35.570312 -37.5625 32.9375 -37.5625 C 30.375 -37.5625 28.046875 -36.566406 25.953125 -34.578125 C 23.867188 -32.585938 22.828125 -30.375 22.828125 -27.9375 L 22.828125 0 Z M 5.78125 0" transform="translate(324.672 64.17)"/></g></g></g><g fill="#FF3152"><g><g><path d="M 55.78125 -22.34375 L 19.9375 -22.34375 C 19.9375 -18.875 21.0625 -16.304688 23.3125 -14.640625 C 25.5625 -12.972656 28 -12.140625 30.625 -12.140625 C 33.394531 -12.140625 35.582031 -12.507812 37.1875 -13.25 C 38.789062 -13.988281 40.617188 -15.445312 42.671875 -17.625 L 55 -11.46875 C 49.863281 -2.863281 41.320312 1.4375 29.375 1.4375 C 21.925781 1.4375 15.535156 -1.113281 10.203125 -6.21875 C 4.878906 -11.320312 2.21875 -17.46875 2.21875 -24.65625 C 2.21875 -31.851562 4.878906 -38.019531 10.203125 -43.15625 C 15.535156 -48.289062 21.925781 -50.859375 29.375 -50.859375 C 37.207031 -50.859375 43.582031 -48.59375 48.5 -44.0625 C 53.414062 -39.539062 55.875 -33.070312 55.875 -24.65625 C 55.875 -23.5 55.84375 -22.726562 55.78125 -22.34375 Z M 20.421875 -31.78125 L 39.203125 -31.78125 C 38.816406 -34.351562 37.804688 -36.328125 36.171875 -37.703125 C 34.535156 -39.085938 32.429688 -39.78125 29.859375 -39.78125 C 27.035156 -39.78125 24.785156 -39.039062 23.109375 -37.5625 C 21.441406 -36.09375 20.546875 -34.164062 20.421875 -31.78125 Z M 20.421875 -31.78125" transform="translate(383.522 64.17)"/></g></g></g><g clip-path="url(#a)"><g fill="#FF3152"><g><g><path d="M 5.78125 0 L 5.78125 -49.421875 L 22.828125 -49.421875 L 22.828125 -42.28125 L 23.015625 -42.28125 C 23.148438 -42.539062 23.359375 -42.863281 23.640625 -43.25 C 23.929688 -43.632812 24.554688 -44.304688 25.515625 -45.265625 C 26.484375 -46.234375 27.515625 -47.101562 28.609375 -47.875 C 29.703125 -48.644531 31.113281 -49.332031 32.84375 -49.9375 C 34.582031 -50.550781 36.347656 -50.859375 38.140625 -50.859375 C 40.003906 -50.859375 41.832031 -50.597656 43.625 -50.078125 C 45.425781 -49.566406 46.75 -49.054688 47.59375 -48.546875 L 48.9375 -47.78125 L 41.8125 -33.328125 C 39.6875 -35.128906 36.726562 -36.03125 32.9375 -36.03125 C 30.882812 -36.03125 29.117188 -35.578125 27.640625 -34.671875 C 26.171875 -33.773438 25.128906 -32.679688 24.515625 -31.390625 C 23.898438 -30.109375 23.460938 -29.019531 23.203125 -28.125 C 22.953125 -27.226562 22.828125 -26.523438 22.828125 -26.015625 L 22.828125 0 Z M 5.78125 0" transform="translate(436.786 64.17)"/></g></g></g></g></svg>