<svg xmlns="http://www.w3.org/2000/svg" width="525" viewBox="0 0 525 525" height="525" version="1.0"><defs><clipPath id="a"><path d="M 0.5 0 L 524.5 0 L 524.5 524 L 0.5 524 Z M 0.5 0"/></clipPath></defs><g clip-path="url(#a)"><path d="M 496.679688 0 L 28.320312 0 C 12.902344 0 0.5 12.40625 0.5 27.824219 L 0.5 496.179688 C 0.5 511.597656 12.902344 524 28.320312 524 L 496.679688 524 C 512.097656 524 524.5 511.597656 524.5 496.179688 L 524.5 27.824219 C 524.5 12.40625 512.097656 0 496.679688 0"/></g><g fill="#FFF"><g><g><path d="M 131.1875 -52.5625 L 46.90625 -52.5625 C 46.90625 -44.40625 49.546875 -38.363281 54.828125 -34.4375 C 60.117188 -30.507812 65.859375 -28.546875 72.046875 -28.546875 C 78.546875 -28.546875 83.679688 -29.414062 87.453125 -31.15625 C 91.234375 -32.894531 95.539062 -36.332031 100.375 -41.46875 L 129.375 -26.96875 C 117.289062 -6.71875 97.203125 3.40625 69.109375 3.40625 C 51.585938 3.40625 36.554688 -2.597656 24.015625 -14.609375 C 11.484375 -26.617188 5.21875 -41.082031 5.21875 -58 C 5.21875 -74.914062 11.484375 -89.414062 24.015625 -101.5 C 36.554688 -113.582031 51.585938 -119.625 69.109375 -119.625 C 87.535156 -119.625 102.523438 -114.300781 114.078125 -103.65625 C 125.628906 -93.007812 131.40625 -77.789062 131.40625 -58 C 131.40625 -55.28125 131.332031 -53.46875 131.1875 -52.5625 Z M 48.03125 -74.765625 L 92.21875 -74.765625 C 91.3125 -80.804688 88.929688 -85.453125 85.078125 -88.703125 C 81.222656 -91.953125 76.273438 -93.578125 70.234375 -93.578125 C 63.585938 -93.578125 58.300781 -91.835938 54.375 -88.359375 C 50.445312 -84.890625 48.332031 -80.359375 48.03125 -74.765625 Z M 48.03125 -74.765625" transform="translate(42.206 323.42)"/></g></g></g><g fill="#FFF"><g><g><path d="M 13.59375 0 L 13.59375 -116.234375 L 53.703125 -116.234375 L 53.703125 -99.46875 L 54.15625 -99.46875 C 54.457031 -100.070312 54.945312 -100.828125 55.625 -101.734375 C 56.300781 -102.640625 57.769531 -104.222656 60.03125 -106.484375 C 62.300781 -108.753906 64.71875 -110.796875 67.28125 -112.609375 C 69.851562 -114.421875 73.175781 -116.039062 77.25 -117.46875 C 81.332031 -118.90625 85.488281 -119.625 89.71875 -119.625 C 94.101562 -119.625 98.410156 -119.019531 102.640625 -117.8125 C 106.867188 -116.601562 109.960938 -115.394531 111.921875 -114.1875 L 115.09375 -112.375 L 98.328125 -78.390625 C 93.347656 -82.617188 86.398438 -84.734375 77.484375 -84.734375 C 72.648438 -84.734375 68.492188 -83.675781 65.015625 -81.5625 C 61.546875 -79.445312 59.09375 -76.878906 57.65625 -73.859375 C 56.226562 -70.835938 55.210938 -68.269531 54.609375 -66.15625 C 54.003906 -64.039062 53.703125 -62.378906 53.703125 -61.171875 L 53.703125 0 Z M 13.59375 0" transform="translate(167.487 323.42)"/></g></g></g><g fill="#FFF"><g><g><path d="M 21.53125 -14.375 C 10.65625 -26.238281 5.21875 -40.78125 5.21875 -58 C 5.21875 -75.21875 10.65625 -89.789062 21.53125 -101.71875 C 32.40625 -113.65625 46.222656 -119.625 62.984375 -119.625 C 78.390625 -119.625 91.078125 -114.789062 101.046875 -105.125 L 101.046875 -116.234375 L 141.15625 -116.234375 L 141.15625 0 L 101.5 0 L 101.5 -13.140625 L 101.046875 -13.140625 C 91.078125 -2.109375 78.390625 3.40625 62.984375 3.40625 C 46.222656 3.40625 32.40625 -2.519531 21.53125 -14.375 Z M 55.625 -77.71875 C 50.414062 -72.582031 47.8125 -66.007812 47.8125 -58 C 47.8125 -50 50.300781 -43.46875 55.28125 -38.40625 C 60.269531 -33.34375 66.84375 -30.8125 75 -30.8125 C 82.851562 -30.8125 89.304688 -33.378906 94.359375 -38.515625 C 99.421875 -43.648438 101.953125 -50.144531 101.953125 -58 C 101.953125 -66.007812 99.347656 -72.582031 94.140625 -77.71875 C 88.929688 -82.851562 82.550781 -85.421875 75 -85.421875 C 67.289062 -85.421875 60.832031 -82.851562 55.625 -77.71875 Z M 55.625 -77.71875" transform="translate(268.98 323.42)"/></g></g></g><g fill="#FFF"><g><g><path d="M 39.421875 -48.484375 C 46.671875 -48.484375 52.828125 -45.953125 57.890625 -40.890625 C 62.953125 -35.835938 65.484375 -29.6875 65.484375 -22.4375 C 65.484375 -15.332031 62.953125 -9.25 57.890625 -4.1875 C 52.828125 0.875 46.671875 3.40625 39.421875 3.40625 C 32.328125 3.40625 26.25 0.875 21.1875 -4.1875 C 16.125 -9.25 13.59375 -15.332031 13.59375 -22.4375 C 13.59375 -29.6875 16.125 -35.835938 21.1875 -40.890625 C 26.25 -45.953125 32.328125 -48.484375 39.421875 -48.484375 Z M 39.421875 -48.484375" transform="translate(412.385 323.42)"/></g></g></g></svg>
