<svg xmlns="http://www.w3.org/2000/svg" width="525" viewBox="0 0 525 525" height="525" version="1.0"><defs><clipPath id="a"><path d="M 0.5 0 L 524.5 0 L 524.5 524 L 0.5 524 Z M 0.5 0"/></clipPath></defs><g clip-path="url(#a)"><path d="M 262.5 0 C 117.800781 0 0.5 117.300781 0.5 262 C 0.5 406.699219 117.800781 524 262.5 524 C 407.199219 524 524.5 406.699219 524.5 262 C 524.5 117.300781 407.199219 0 262.5 0"/></g><g fill="#FFF"><g><g><path d="M 208.78125 -325.40625 C 227.25 -325.40625 244.015625 -321.953125 259.078125 -315.046875 C 274.140625 -308.148438 287.066406 -299.210938 297.859375 -288.234375 C 308.648438 -277.253906 316.957031 -264.957031 322.78125 -251.34375 C 328.613281 -237.738281 331.53125 -224.132812 331.53125 -210.53125 C 331.53125 -198.476562 327.835938 -186.375 320.453125 -174.21875 C 313.066406 -162.070312 302.710938 -151.140625 289.390625 -141.421875 C 276.078125 -131.703125 260.085938 -123.828125 241.421875 -117.796875 C 222.765625 -111.773438 202.257812 -108.765625 179.90625 -108.765625 C 168.25 -108.765625 156.003906 -109.929688 143.171875 -112.265625 C 143.953125 -103.898438 146.378906 -96.703125 150.453125 -90.671875 C 154.535156 -84.648438 159.6875 -79.695312 165.90625 -75.8125 C 172.132812 -71.925781 179.179688 -69.054688 187.046875 -67.203125 C 194.921875 -65.359375 203.039062 -64.4375 211.40625 -64.4375 C 220.726562 -64.4375 229.710938 -65.257812 238.359375 -66.90625 C 247.015625 -68.5625 255.328125 -70.75 263.296875 -73.46875 C 271.273438 -76.195312 278.957031 -79.210938 286.34375 -82.515625 C 293.726562 -85.816406 300.722656 -89.125 307.328125 -92.4375 C 309.078125 -92.820312 310.582031 -93.160156 311.84375 -93.453125 C 313.113281 -93.742188 314.332031 -93.890625 315.5 -93.890625 C 315.5 -93.890625 315.445312 -92.332031 315.34375 -89.21875 C 315.25 -86.113281 315.203125 -81.738281 315.203125 -76.09375 C 315.203125 -70.457031 315.15625 -63.65625 315.0625 -55.6875 C 314.96875 -47.71875 314.820312 -38.875 314.625 -29.15625 C 315.207031 -28.1875 315.59375 -27.210938 315.78125 -26.234375 C 315.976562 -25.265625 316.078125 -24.488281 316.078125 -23.90625 C 316.078125 -21.570312 313.9375 -19.046875 309.65625 -16.328125 C 305.382812 -13.609375 299.796875 -10.789062 292.890625 -7.875 C 285.992188 -4.957031 278.125 -2.140625 269.28125 0.578125 C 260.4375 3.304688 251.445312 5.785156 242.3125 8.015625 C 233.175781 10.253906 224.328125 12.003906 215.765625 13.265625 C 207.210938 14.523438 199.734375 15.15625 193.328125 15.15625 C 172.328125 15.15625 151.960938 11.507812 132.234375 4.21875 C 112.503906 -3.0625 95.007812 -13.503906 79.75 -27.109375 C 64.488281 -40.722656 52.289062 -57.25 43.15625 -76.6875 C 34.019531 -96.125 29.453125 -117.992188 29.453125 -142.296875 C 29.453125 -167.765625 33.820312 -191.625 42.5625 -213.875 C 51.3125 -236.132812 63.609375 -255.523438 79.453125 -272.046875 C 95.296875 -288.578125 114.203125 -301.601562 136.171875 -311.125 C 158.140625 -320.644531 182.34375 -325.40625 208.78125 -325.40625 Z M 205.28125 -247.84375 C 197.3125 -247.84375 189.972656 -246.140625 183.265625 -242.734375 C 176.554688 -239.335938 170.429688 -234.476562 164.890625 -228.15625 C 159.347656 -221.84375 154.535156 -214.265625 150.453125 -205.421875 C 146.378906 -196.578125 143.078125 -186.8125 140.546875 -176.125 C 160.566406 -179.625 177.1875 -183.316406 190.40625 -187.203125 C 203.625 -191.085938 214.21875 -195.019531 222.1875 -199 C 230.15625 -202.988281 235.789062 -206.972656 239.09375 -210.953125 C 242.40625 -214.941406 244.0625 -218.785156 244.0625 -222.484375 C 244.0625 -225.984375 242.75 -229.285156 240.125 -232.390625 C 237.5 -235.503906 234.238281 -238.226562 230.34375 -240.5625 C 226.457031 -242.894531 222.226562 -244.691406 217.65625 -245.953125 C 213.09375 -247.210938 208.96875 -247.84375 205.28125 -247.84375 Z M 205.28125 -247.84375" transform="translate(64.973 421.526)"/></g></g></g></svg>
