<svg xmlns="http://www.w3.org/2000/svg" width="525" viewBox="0 0 525 525" height="525" version="1.0"><defs><clipPath id="a"><path d="M 0.5 0 L 524.5 0 L 524.5 524 L 0.5 524 Z M 0.5 0"/></clipPath></defs><g clip-path="url(#a)"><path d="M 496.679688 0 L 28.320312 0 C 12.902344 0 0.5 12.40625 0.5 27.824219 L 0.5 496.179688 C 0.5 511.597656 12.902344 524 28.320312 524 L 496.679688 524 C 512.097656 524 524.5 511.597656 524.5 496.179688 L 524.5 27.824219 C 524.5 12.40625 512.097656 0 496.679688 0"/></g><g fill="#FFF"><g><g><path d="M 135.859375 -54.4375 L 48.578125 -54.4375 C 48.578125 -45.988281 51.3125 -39.726562 56.78125 -35.65625 C 62.257812 -31.59375 68.207031 -29.5625 74.625 -29.5625 C 81.34375 -29.5625 86.65625 -30.460938 90.5625 -32.265625 C 94.476562 -34.066406 98.941406 -37.625 103.953125 -42.9375 L 133.984375 -27.921875 C 121.472656 -6.960938 100.664062 3.515625 71.5625 3.515625 C 53.414062 3.515625 37.847656 -2.703125 24.859375 -15.140625 C 11.878906 -27.578125 5.390625 -42.554688 5.390625 -60.078125 C 5.390625 -77.597656 11.878906 -92.613281 24.859375 -105.125 C 37.847656 -117.644531 53.414062 -123.90625 71.5625 -123.90625 C 90.65625 -123.90625 106.179688 -118.390625 118.140625 -107.359375 C 130.109375 -96.328125 136.09375 -80.566406 136.09375 -60.078125 C 136.09375 -57.253906 136.015625 -55.375 135.859375 -54.4375 Z M 49.75 -77.4375 L 95.5 -77.4375 C 94.5625 -83.695312 92.097656 -88.503906 88.109375 -91.859375 C 84.117188 -95.222656 79 -96.90625 72.75 -96.90625 C 65.863281 -96.90625 60.382812 -95.109375 56.3125 -91.515625 C 52.25 -87.921875 50.0625 -83.226562 49.75 -77.4375 Z M 49.75 -77.4375" transform="translate(35.234 325.87)"/></g></g></g><g fill="#FFF"><g><g><path d="M 14.078125 0 L 14.078125 -120.375 L 55.609375 -120.375 L 55.609375 -103.015625 L 56.078125 -103.015625 C 56.390625 -103.640625 56.898438 -104.421875 57.609375 -105.359375 C 58.316406 -106.296875 59.84375 -107.9375 62.1875 -110.28125 C 64.53125 -112.632812 67.03125 -114.75 69.6875 -116.625 C 72.351562 -118.5 75.796875 -120.179688 80.015625 -121.671875 C 84.242188 -123.160156 88.546875 -123.90625 92.921875 -123.90625 C 97.460938 -123.90625 101.921875 -123.273438 106.296875 -122.015625 C 110.679688 -120.765625 113.890625 -119.515625 115.921875 -118.265625 L 119.203125 -116.390625 L 101.84375 -81.1875 C 96.675781 -85.570312 89.476562 -87.765625 80.25 -87.765625 C 75.25 -87.765625 70.945312 -86.664062 67.34375 -84.46875 C 63.75 -82.28125 61.207031 -79.625 59.71875 -76.5 C 58.226562 -73.375 57.171875 -70.710938 56.546875 -68.515625 C 55.921875 -66.328125 55.609375 -64.609375 55.609375 -63.359375 L 55.609375 0 Z M 14.078125 0" transform="translate(164.99 325.87)"/></g></g></g><g fill="#FFF"><g><g><path d="M 22.28125 -14.90625 C 11.019531 -27.1875 5.390625 -42.242188 5.390625 -60.078125 C 5.390625 -77.910156 11.019531 -93.003906 22.28125 -105.359375 C 33.550781 -117.722656 47.867188 -123.90625 65.234375 -123.90625 C 81.191406 -123.90625 94.332031 -118.894531 104.65625 -108.875 L 104.65625 -120.375 L 146.1875 -120.375 L 146.1875 0 L 105.125 0 L 105.125 -13.609375 L 104.65625 -13.609375 C 94.332031 -2.191406 81.191406 3.515625 65.234375 3.515625 C 47.867188 3.515625 33.550781 -2.625 22.28125 -14.90625 Z M 57.609375 -80.484375 C 52.210938 -75.171875 49.515625 -68.367188 49.515625 -60.078125 C 49.515625 -51.785156 52.09375 -45.015625 57.25 -39.765625 C 62.414062 -34.523438 69.222656 -31.90625 77.671875 -31.90625 C 85.804688 -31.90625 92.492188 -34.566406 97.734375 -39.890625 C 102.972656 -45.210938 105.59375 -51.941406 105.59375 -60.078125 C 105.59375 -68.367188 102.894531 -75.171875 97.5 -80.484375 C 92.101562 -85.804688 85.492188 -88.46875 77.671875 -88.46875 C 69.691406 -88.46875 63.003906 -85.804688 57.609375 -80.484375 Z M 57.609375 -80.484375" transform="translate(270.11 325.87)"/></g></g></g><g fill="#FFF"><g><g><path d="M 40.828125 -50.21875 C 48.335938 -50.21875 54.710938 -47.597656 59.953125 -42.359375 C 65.191406 -37.117188 67.8125 -30.742188 67.8125 -23.234375 C 67.8125 -15.878906 65.191406 -9.582031 59.953125 -4.34375 C 54.710938 0.894531 48.335938 3.515625 40.828125 3.515625 C 33.472656 3.515625 27.175781 0.894531 21.9375 -4.34375 C 16.695312 -9.582031 14.078125 -15.878906 14.078125 -23.234375 C 14.078125 -30.742188 16.695312 -37.117188 21.9375 -42.359375 C 27.175781 -47.597656 33.472656 -50.21875 40.828125 -50.21875 Z M 40.828125 -50.21875" transform="translate(418.637 325.87)"/></g></g></g></svg>