<svg xmlns="http://www.w3.org/2000/svg" width="192" viewBox="0 0 192 192" height="192" version="1.0"><path fill="#FF3152" d="M 181.804688 0 L 10.195312 0 C 4.546875 0 0 4.546875 0 10.195312 L 0 181.804688 C 0 187.453125 4.546875 192 10.195312 192 L 181.804688 192 C 187.453125 192 192 187.453125 192 181.804688 L 192 10.195312 C 192 4.546875 187.453125 0 181.804688 0"/><g fill="#FFF"><g><g><path d="M 50 -20.03125 L 17.875 -20.03125 C 17.875 -16.925781 18.878906 -14.625 20.890625 -13.125 C 22.910156 -11.625 25.097656 -10.875 27.453125 -10.875 C 29.929688 -10.875 31.890625 -11.203125 33.328125 -11.859375 C 34.765625 -12.523438 36.40625 -13.835938 38.25 -15.796875 L 49.296875 -10.28125 C 44.691406 -2.5625 37.035156 1.296875 26.328125 1.296875 C 19.648438 1.296875 13.921875 -0.988281 9.140625 -5.5625 C 4.367188 -10.144531 1.984375 -15.660156 1.984375 -22.109375 C 1.984375 -28.554688 4.367188 -34.082031 9.140625 -38.6875 C 13.921875 -43.289062 19.648438 -45.59375 26.328125 -45.59375 C 33.359375 -45.59375 39.070312 -43.5625 43.46875 -39.5 C 47.875 -35.445312 50.078125 -29.648438 50.078125 -22.109375 C 50.078125 -21.066406 50.050781 -20.375 50 -20.03125 Z M 18.3125 -28.5 L 35.140625 -28.5 C 34.796875 -30.800781 33.890625 -32.566406 32.421875 -33.796875 C 30.953125 -35.035156 29.066406 -35.65625 26.765625 -35.65625 C 24.234375 -35.65625 22.21875 -34.992188 20.71875 -33.671875 C 19.226562 -32.347656 18.425781 -30.625 18.3125 -28.5 Z M 18.3125 -28.5" transform="translate(11.994 119.694)"/></g></g></g><g fill="#FFF"><g><g><path d="M 5.1875 0 L 5.1875 -44.296875 L 20.46875 -44.296875 L 20.46875 -37.90625 L 20.640625 -37.90625 C 20.753906 -38.132812 20.941406 -38.421875 21.203125 -38.765625 C 21.460938 -39.109375 22.019531 -39.710938 22.875 -40.578125 C 23.738281 -41.441406 24.660156 -42.21875 25.640625 -42.90625 C 26.617188 -43.601562 27.882812 -44.222656 29.4375 -44.765625 C 31 -45.316406 32.582031 -45.59375 34.1875 -45.59375 C 35.863281 -45.59375 37.503906 -45.359375 39.109375 -44.890625 C 40.722656 -44.429688 41.90625 -43.972656 42.65625 -43.515625 L 43.859375 -42.828125 L 37.46875 -29.875 C 35.570312 -31.488281 32.925781 -32.296875 29.53125 -32.296875 C 27.6875 -32.296875 26.101562 -31.890625 24.78125 -31.078125 C 23.457031 -30.273438 22.519531 -29.296875 21.96875 -28.140625 C 21.425781 -26.992188 21.039062 -26.015625 20.8125 -25.203125 C 20.582031 -24.398438 20.46875 -23.769531 20.46875 -23.3125 L 20.46875 0 Z M 5.1875 0" transform="translate(59.737 119.694)"/></g></g></g><g fill="#FFF"><g><g><path d="M 8.203125 -5.484375 C 4.054688 -10.003906 1.984375 -15.546875 1.984375 -22.109375 C 1.984375 -28.671875 4.054688 -34.222656 8.203125 -38.765625 C 12.347656 -43.316406 17.613281 -45.59375 24 -45.59375 C 29.875 -45.59375 34.710938 -43.75 38.515625 -40.0625 L 38.515625 -44.296875 L 53.796875 -44.296875 L 53.796875 0 L 38.6875 0 L 38.6875 -5.015625 L 38.515625 -5.015625 C 34.710938 -0.804688 29.875 1.296875 24 1.296875 C 17.613281 1.296875 12.347656 -0.960938 8.203125 -5.484375 Z M 21.1875 -29.609375 C 19.207031 -27.660156 18.21875 -25.160156 18.21875 -22.109375 C 18.21875 -19.054688 19.164062 -16.566406 21.0625 -14.640625 C 22.96875 -12.710938 25.472656 -11.75 28.578125 -11.75 C 31.566406 -11.75 34.023438 -12.722656 35.953125 -14.671875 C 37.890625 -16.628906 38.859375 -19.109375 38.859375 -22.109375 C 38.859375 -25.160156 37.863281 -27.660156 35.875 -29.609375 C 33.882812 -31.566406 31.453125 -32.546875 28.578125 -32.546875 C 25.640625 -32.546875 23.175781 -31.566406 21.1875 -29.609375 Z M 21.1875 -29.609375" transform="translate(98.414 119.694)"/></g></g></g><g fill="#FFF"><g><g><path d="M 15.03125 -18.484375 C 17.789062 -18.484375 20.132812 -17.515625 22.0625 -15.578125 C 23.988281 -13.648438 24.953125 -11.304688 24.953125 -8.546875 C 24.953125 -5.835938 23.988281 -3.519531 22.0625 -1.59375 C 20.132812 0.332031 17.789062 1.296875 15.03125 1.296875 C 12.320312 1.296875 10.003906 0.332031 8.078125 -1.59375 C 6.148438 -3.519531 5.1875 -5.835938 5.1875 -8.546875 C 5.1875 -11.304688 6.148438 -13.648438 8.078125 -15.578125 C 10.003906 -17.515625 12.320312 -18.484375 15.03125 -18.484375 Z M 15.03125 -18.484375" transform="translate(153.063 119.694)"/></g></g></g></svg>