<svg xmlns="http://www.w3.org/2000/svg" xmlns:xlink="http://www.w3.org/1999/xlink" width="450" viewBox="0 0 450 637.5" height="637.5" version="1.0"><defs><clipPath id="a"><path d="M 0.175781 0 L 449.824219 0 L 449.824219 637 L 0.175781 637 Z M 0.175781 0"/></clipPath><clipPath id="b"><path d="M 7.171875 89.703125 L 442.582031 89.703125 L 442.582031 397.710938 L 7.171875 397.710938 Z M 7.171875 89.703125"/></clipPath><clipPath id="c"><path d="M 395.777344 213.878906 C 396.472656 208.835938 396.996094 203.707031 396.996094 198.402344 C 396.996094 138.398438 348.289062 89.703125 288.28125 89.703125 C 247.664062 89.703125 212.265625 112.050781 193.65625 145.007812 C 182.871094 138.660156 170.347656 134.921875 156.953125 134.921875 C 119.121094 134.921875 88.070312 163.964844 84.765625 200.921875 C 40.496094 211.183594 7.449219 250.664062 7.449219 298.054688 C 7.449219 353.101562 52.066406 397.710938 107.117188 397.710938 L 342.636719 397.710938 C 397.691406 397.710938 442.304688 353.101562 442.304688 298.054688 C 442.304688 262.578125 423.695312 231.53125 395.777344 213.878906 Z M 164.691406 240.488281 C 166.433594 242.230469 166.433594 245.097656 164.691406 246.925781 C 163.824219 247.792969 162.691406 248.230469 161.476562 248.230469 C 160.34375 248.230469 159.125 247.792969 158.257812 246.925781 L 152.429688 241.097656 L 146.601562 246.925781 C 145.734375 247.792969 144.601562 248.230469 143.386719 248.230469 C 142.167969 248.230469 141.035156 247.792969 140.167969 246.925781 C 138.425781 245.183594 138.425781 242.316406 140.167969 240.488281 L 145.996094 234.664062 L 140.167969 228.835938 C 138.425781 227.097656 138.425781 224.226562 140.167969 222.402344 C 141.90625 220.664062 144.777344 220.664062 146.601562 222.402344 L 152.429688 228.226562 L 158.257812 222.402344 C 159.996094 220.664062 162.867188 220.664062 164.691406 222.402344 C 166.433594 224.140625 166.433594 227.011719 164.691406 228.835938 L 158.867188 234.664062 Z M 273.753906 332.578125 C 272.191406 334.578125 269.320312 334.839844 267.40625 333.273438 C 242.445312 313.273438 207.484375 313.273438 182.433594 333.273438 C 181.566406 333.96875 180.609375 334.230469 179.566406 334.230469 C 178.261719 334.230469 176.957031 333.621094 176 332.492188 C 174.433594 330.578125 174.78125 327.710938 176.695312 326.144531 C 205.046875 303.449219 244.621094 303.449219 272.972656 326.144531 C 274.972656 327.796875 275.234375 330.578125 273.753906 332.578125 Z M 309.585938 240.488281 C 311.328125 242.230469 311.328125 245.097656 309.585938 246.925781 C 308.71875 247.792969 307.585938 248.230469 306.371094 248.230469 C 305.152344 248.230469 304.023438 247.792969 303.152344 246.925781 L 297.324219 241.097656 L 291.496094 246.925781 C 290.628906 247.792969 289.496094 248.230469 288.28125 248.230469 C 287.148438 248.230469 285.929688 247.792969 285.0625 246.925781 C 283.324219 245.183594 283.324219 242.316406 285.0625 240.488281 L 290.890625 234.664062 L 285.0625 228.835938 C 283.324219 227.097656 283.324219 224.226562 285.0625 222.402344 C 286.800781 220.664062 289.671875 220.664062 291.496094 222.402344 L 297.324219 228.226562 L 303.152344 222.402344 C 304.890625 220.664062 307.761719 220.664062 309.585938 222.402344 C 311.328125 224.140625 311.328125 227.011719 309.585938 228.835938 L 303.761719 234.664062 Z M 309.585938 240.488281"/></clipPath><linearGradient x1="0" gradientTransform="matrix(.86972 0 0 .86959 7.448 89.703)" xmlns:xlink="http://www.w3.org/1999/xlink" y1="177.1" x2="500" gradientUnits="userSpaceOnUse" y2="177.1" xlink:type="simple" xlink:actuate="onLoad" id="d" xlink:show="other"><stop stop-color="#DEADD1" offset="0"/><stop stop-color="#DEADD1" offset=".008"/><stop stop-color="#DEADD0" offset=".016"/><stop stop-color="#DFADD0" offset=".023"/><stop stop-color="#DFADCF" offset=".031"/><stop stop-color="#DFADCF" offset=".039"/><stop stop-color="#E0ADCE" offset=".047"/><stop stop-color="#E0ADCE" offset=".055"/><stop stop-color="#E0AECD" offset=".063"/><stop stop-color="#E0AECD" offset=".07"/><stop stop-color="#E1AECC" offset=".078"/><stop stop-color="#E1AECC" offset=".086"/><stop stop-color="#E1AECB" offset=".094"/><stop stop-color="#E1AECB" offset=".102"/><stop stop-color="#E2AECA" offset=".109"/><stop stop-color="#E2AECA" offset=".117"/><stop stop-color="#E2AEC9" offset=".125"/><stop stop-color="#E2AEC9" offset=".133"/><stop stop-color="#E3AEC8" offset=".141"/><stop stop-color="#E3AFC8" offset=".148"/><stop stop-color="#E3AFC7" offset=".156"/><stop stop-color="#E3AFC7" offset=".164"/><stop stop-color="#E4AFC6" offset=".172"/><stop stop-color="#E4AFC6" offset=".18"/><stop stop-color="#E4AFC5" offset=".188"/><stop stop-color="#E4AFC5" offset=".195"/><stop stop-color="#E5AFC4" offset=".203"/><stop stop-color="#E5AFC4" offset=".211"/><stop stop-color="#E5AFC3" offset=".219"/><stop stop-color="#E5AFC3" offset=".227"/><stop stop-color="#E6AFC2" offset=".234"/><stop stop-color="#E6B0C2" offset=".242"/><stop stop-color="#E6B0C1" offset=".25"/><stop stop-color="#E6B0C1" offset=".258"/><stop stop-color="#E7B0C0" offset=".266"/><stop stop-color="#E7B0C0" offset=".273"/><stop stop-color="#E7B0BF" offset=".281"/><stop stop-color="#E7B0BF" offset=".289"/><stop stop-color="#E8B0BE" offset=".297"/><stop stop-color="#E8B0BE" offset=".305"/><stop stop-color="#E8B0BD" offset=".313"/><stop stop-color="#E9B0BD" offset=".32"/><stop stop-color="#E9B1BC" offset=".328"/><stop stop-color="#E9B1BC" offset=".336"/><stop stop-color="#E9B1BB" offset=".344"/><stop stop-color="#EAB1BB" offset=".352"/><stop stop-color="#EAB1BA" offset=".359"/><stop stop-color="#EAB1BA" offset=".367"/><stop stop-color="#EAB1B9" offset=".375"/><stop stop-color="#EBB1B9" offset=".383"/><stop stop-color="#EBB1B8" offset=".391"/><stop stop-color="#EBB1B8" offset=".398"/><stop stop-color="#EBB1B7" offset=".406"/><stop stop-color="#ECB1B7" offset=".414"/><stop stop-color="#ECB2B6" offset=".422"/><stop stop-color="#ECB2B6" offset=".43"/><stop stop-color="#ECB2B5" offset=".438"/><stop stop-color="#EDB2B5" offset=".445"/><stop stop-color="#EDB2B4" offset=".453"/><stop stop-color="#EDB2B4" offset=".461"/><stop stop-color="#EDB2B3" offset=".469"/><stop stop-color="#EEB2B3" offset=".477"/><stop stop-color="#EEB2B2" offset=".484"/><stop stop-color="#EEB2B2" offset=".492"/><stop stop-color="#EEB2B1" offset=".5"/><stop stop-color="#EFB3B1" offset=".508"/><stop stop-color="#EFB3B0" offset=".516"/><stop stop-color="#EFB3B0" offset=".523"/><stop stop-color="#EFB3AF" offset=".531"/><stop stop-color="#F0B3AF" offset=".539"/><stop stop-color="#F0B3AE" offset=".547"/><stop stop-color="#F0B3AE" offset=".555"/><stop stop-color="#F0B3AD" offset=".563"/><stop stop-color="#F1B3AD" offset=".57"/><stop stop-color="#F1B3AC" offset=".578"/><stop stop-color="#F1B3AC" offset=".586"/><stop stop-color="#F2B4AB" offset=".594"/><stop stop-color="#F2B4AB" offset=".602"/><stop stop-color="#F2B4AA" offset=".609"/><stop stop-color="#F2B4AA" offset=".617"/><stop stop-color="#F3B4A9" offset=".625"/><stop stop-color="#F3B4A9" offset=".633"/><stop stop-color="#F3B4A8" offset=".641"/><stop stop-color="#F3B4A8" offset=".648"/><stop stop-color="#F4B4A7" offset=".656"/><stop stop-color="#F4B4A7" offset=".664"/><stop stop-color="#F4B4A6" offset=".672"/><stop stop-color="#F4B4A6" offset=".68"/><stop stop-color="#F5B5A5" offset=".688"/><stop stop-color="#F5B5A5" offset=".695"/><stop stop-color="#F5B5A4" offset=".703"/><stop stop-color="#F5B5A4" offset=".711"/><stop stop-color="#F6B5A3" offset=".719"/><stop stop-color="#F6B5A3" offset=".727"/><stop stop-color="#F6B5A2" offset=".734"/><stop stop-color="#F6B5A2" offset=".742"/><stop stop-color="#F7B5A1" offset=".75"/><stop stop-color="#F7B5A1" offset=".758"/><stop stop-color="#F7B5A0" offset=".766"/><stop stop-color="#F7B6A0" offset=".773"/><stop stop-color="#F8B69F" offset=".781"/><stop stop-color="#F8B69F" offset=".789"/><stop stop-color="#F8B69E" offset=".797"/><stop stop-color="#F8B69E" offset=".805"/><stop stop-color="#F9B69D" offset=".813"/><stop stop-color="#F9B69D" offset=".82"/><stop stop-color="#F9B69C" offset=".828"/><stop stop-color="#F9B69C" offset=".836"/><stop stop-color="#FAB69B" offset=".844"/><stop stop-color="#FAB69B" offset=".852"/><stop stop-color="#FAB69A" offset=".859"/><stop stop-color="#FBB79A" offset=".867"/><stop stop-color="#FBB799" offset=".875"/><stop stop-color="#FBB799" offset=".883"/><stop stop-color="#FBB798" offset=".891"/><stop stop-color="#FCB798" offset=".898"/><stop stop-color="#FCB797" offset=".906"/><stop stop-color="#FCB797" offset=".914"/><stop stop-color="#FCB796" offset=".922"/><stop stop-color="#FDB796" offset=".93"/><stop stop-color="#FDB795" offset=".938"/><stop stop-color="#FDB795" offset=".945"/><stop stop-color="#FDB894" offset=".953"/><stop stop-color="#FEB894" offset=".961"/><stop stop-color="#FEB893" offset=".969"/><stop stop-color="#FEB893" offset=".977"/><stop stop-color="#FEB892" offset=".984"/><stop stop-color="#FFB892" offset=".992"/><stop stop-color="#FFB891" offset="1"/></linearGradient></defs><g clip-path="url(#a)" fill="#FFF"><path d="M 0.175781 0 L 449.824219 0 L 449.824219 643.746094 L 0.175781 643.746094 Z M 0.175781 0"/><path d="M 0.175781 0 L 449.824219 0 L 449.824219 637 L 0.175781 637 Z M 0.175781 0"/><path d="M 0.175781 0 L 449.824219 0 L 449.824219 637 L 0.175781 637 Z M 0.175781 0"/></g><g clip-path="url(#b)"><g clip-path="url(#c)"><path fill="url(#d)" d="M 7.449219 89.703125 L 7.449219 397.710938 L 442.304688 397.710938 L 442.304688 89.703125 Z M 7.449219 89.703125"/></g></g><g><g><g><path d="M 22.109375 -0.234375 C 21.691406 -0.117188 21.039062 -0.00390625 20.15625 0.109375 C 19.269531 0.222656 18.398438 0.28125 17.546875 0.28125 C 15.773438 0.28125 14.445312 -0.015625 13.5625 -0.609375 C 12.675781 -1.203125 12.234375 -2.460938 12.234375 -4.390625 L 12.234375 -12.1875 C 11.273438 -13.601562 10.238281 -15.175781 9.125 -16.90625 C 8.007812 -18.644531 6.910156 -20.414062 5.828125 -22.21875 C 4.753906 -24.03125 3.753906 -25.8125 2.828125 -27.5625 C 1.898438 -29.3125 1.148438 -30.921875 0.578125 -32.390625 C 1.078125 -33.078125 1.757812 -33.707031 2.625 -34.28125 C 3.488281 -34.863281 4.554688 -35.15625 5.828125 -35.15625 C 7.328125 -35.15625 8.546875 -34.847656 9.484375 -34.234375 C 10.429688 -33.617188 11.332031 -32.460938 12.1875 -30.765625 L 16.96875 -21.125 L 17.328125 -21.125 C 17.859375 -22.320312 18.328125 -23.410156 18.734375 -24.390625 C 19.140625 -25.367188 19.535156 -26.347656 19.921875 -27.328125 C 20.304688 -28.316406 20.707031 -29.335938 21.125 -30.390625 C 21.550781 -31.453125 22.035156 -32.675781 22.578125 -34.0625 C 23.265625 -34.40625 24.03125 -34.671875 24.875 -34.859375 C 25.726562 -35.054688 26.539062 -35.15625 27.3125 -35.15625 C 28.65625 -35.15625 29.796875 -34.800781 30.734375 -34.09375 C 31.679688 -33.382812 32.15625 -32.316406 32.15625 -30.890625 C 32.15625 -30.421875 32.054688 -29.859375 31.859375 -29.203125 C 31.671875 -28.554688 31.226562 -27.566406 30.53125 -26.234375 C 29.84375 -24.910156 28.832031 -23.113281 27.5 -20.84375 C 26.175781 -18.570312 24.378906 -15.609375 22.109375 -11.953125 Z M 22.109375 -0.234375" transform="translate(32.287 492.432)"/></g></g></g><g><g><g><path d="M 32.046875 -14.03125 C 32.046875 -11.644531 31.675781 -9.515625 30.9375 -7.640625 C 30.207031 -5.773438 29.175781 -4.207031 27.84375 -2.9375 C 26.519531 -1.675781 24.9375 -0.71875 23.09375 -0.0625 C 21.25 0.59375 19.191406 0.921875 16.921875 0.921875 C 14.648438 0.921875 12.585938 0.578125 10.734375 -0.109375 C 8.890625 -0.804688 7.300781 -1.796875 5.96875 -3.078125 C 4.644531 -4.367188 3.617188 -5.9375 2.890625 -7.78125 C 2.160156 -9.632812 1.796875 -11.71875 1.796875 -14.03125 C 1.796875 -16.300781 2.160156 -18.359375 2.890625 -20.203125 C 3.617188 -22.054688 4.644531 -23.625 5.96875 -24.90625 C 7.300781 -26.195312 8.890625 -27.1875 10.734375 -27.875 C 12.585938 -28.570312 14.648438 -28.921875 16.921875 -28.921875 C 19.191406 -28.921875 21.25 -28.5625 23.09375 -27.84375 C 24.9375 -27.132812 26.519531 -26.132812 27.84375 -24.84375 C 29.175781 -23.5625 30.207031 -21.992188 30.9375 -20.140625 C 31.675781 -18.296875 32.046875 -16.257812 32.046875 -14.03125 Z M 11.828125 -14.03125 C 11.828125 -11.675781 12.28125 -9.875 13.1875 -8.625 C 14.09375 -7.375 15.351562 -6.75 16.96875 -6.75 C 18.59375 -6.75 19.835938 -7.382812 20.703125 -8.65625 C 21.566406 -9.925781 22 -11.71875 22 -14.03125 C 22 -16.34375 21.554688 -18.125 20.671875 -19.375 C 19.785156 -20.625 18.535156 -21.25 16.921875 -21.25 C 15.296875 -21.25 14.039062 -20.625 13.15625 -19.375 C 12.269531 -18.125 11.828125 -16.34375 11.828125 -14.03125 Z M 11.828125 -14.03125" transform="translate(65.426 492.432)"/></g></g></g><g><g><g><path d="M 3 -27.65625 C 3.382812 -27.769531 3.988281 -27.882812 4.8125 -28 C 5.644531 -28.113281 6.503906 -28.171875 7.390625 -28.171875 C 8.234375 -28.171875 8.992188 -28.113281 9.671875 -28 C 10.347656 -27.882812 10.914062 -27.648438 11.375 -27.296875 C 11.832031 -26.953125 12.1875 -26.484375 12.4375 -25.890625 C 12.6875 -25.296875 12.8125 -24.519531 12.8125 -23.5625 L 12.8125 -11.140625 C 12.8125 -9.566406 13.195312 -8.441406 13.96875 -7.765625 C 14.738281 -7.085938 15.859375 -6.75 17.328125 -6.75 C 18.203125 -6.75 18.921875 -6.828125 19.484375 -6.984375 C 20.046875 -7.140625 20.476562 -7.296875 20.78125 -7.453125 L 20.78125 -27.65625 C 21.164062 -27.769531 21.769531 -27.882812 22.59375 -28 C 23.425781 -28.113281 24.285156 -28.171875 25.171875 -28.171875 C 26.015625 -28.171875 26.773438 -28.113281 27.453125 -28 C 28.128906 -27.882812 28.695312 -27.648438 29.15625 -27.296875 C 29.613281 -26.953125 29.96875 -26.484375 30.21875 -25.890625 C 30.46875 -25.296875 30.59375 -24.519531 30.59375 -23.5625 L 30.59375 -6 C 30.59375 -4.082031 29.785156 -2.640625 28.171875 -1.671875 C 26.828125 -0.828125 25.21875 -0.1875 23.34375 0.25 C 21.476562 0.695312 19.453125 0.921875 17.265625 0.921875 C 15.179688 0.921875 13.265625 0.6875 11.515625 0.21875 C 9.765625 -0.238281 8.253906 -0.945312 6.984375 -1.90625 C 5.710938 -2.863281 4.726562 -4.101562 4.03125 -5.625 C 3.34375 -7.144531 3 -8.984375 3 -11.140625 Z M 3 -27.65625" transform="translate(99.257 492.432)"/></g></g></g><g><g><g><path d="M 9.703125 -23.5625 C 9.273438 -23.320312 8.753906 -23.125 8.140625 -22.96875 C 7.523438 -22.820312 6.832031 -22.75 6.0625 -22.75 C 5.019531 -22.75 4.132812 -22.96875 3.40625 -23.40625 C 2.675781 -23.851562 2.269531 -24.554688 2.1875 -25.515625 L 1.4375 -36.546875 C 1.976562 -36.972656 2.671875 -37.347656 3.515625 -37.671875 C 4.367188 -37.992188 5.3125 -38.15625 6.34375 -38.15625 C 7.8125 -38.15625 8.957031 -37.867188 9.78125 -37.296875 C 10.613281 -36.722656 11.03125 -35.78125 11.03125 -34.46875 C 11.03125 -33.925781 10.988281 -33.191406 10.90625 -32.265625 C 10.832031 -31.347656 10.726562 -30.367188 10.59375 -29.328125 C 10.457031 -28.285156 10.3125 -27.253906 10.15625 -26.234375 C 10.007812 -25.210938 9.859375 -24.320312 9.703125 -23.5625 Z M 9.703125 -23.5625" transform="translate(132.858 492.432)"/></g></g></g><g><g><g><path d="M 12.8125 -0.0625 C 12.425781 0.0507812 11.816406 0.164062 10.984375 0.28125 C 10.160156 0.40625 9.304688 0.46875 8.421875 0.46875 C 7.578125 0.46875 6.816406 0.40625 6.140625 0.28125 C 5.472656 0.164062 4.90625 -0.0625 4.4375 -0.40625 C 3.976562 -0.75 3.625 -1.21875 3.375 -1.8125 C 3.125 -2.414062 3 -3.195312 3 -4.15625 L 3 -21.484375 C 3 -22.367188 3.160156 -23.125 3.484375 -23.75 C 3.816406 -24.382812 4.289062 -24.953125 4.90625 -25.453125 C 5.519531 -25.960938 6.28125 -26.414062 7.1875 -26.8125 C 8.09375 -27.21875 9.0625 -27.570312 10.09375 -27.875 C 11.132812 -28.1875 12.210938 -28.429688 13.328125 -28.609375 C 14.453125 -28.785156 15.570312 -28.875 16.6875 -28.875 C 18.53125 -28.875 19.988281 -28.515625 21.0625 -27.796875 C 22.144531 -27.085938 22.6875 -25.925781 22.6875 -24.3125 C 22.6875 -23.769531 22.609375 -23.238281 22.453125 -22.71875 C 22.304688 -22.195312 22.113281 -21.722656 21.875 -21.296875 C 21.070312 -21.296875 20.242188 -21.257812 19.390625 -21.1875 C 18.546875 -21.113281 17.71875 -21 16.90625 -20.84375 C 16.101562 -20.6875 15.34375 -20.519531 14.625 -20.34375 C 13.914062 -20.175781 13.3125 -19.976562 12.8125 -19.75 Z M 12.8125 -0.0625" transform="translate(145.501 492.432)"/></g></g></g><g><g><g><path d="M 17.84375 0.921875 C 15.570312 0.921875 13.460938 0.601562 11.515625 -0.03125 C 9.578125 -0.664062 7.882812 -1.617188 6.4375 -2.890625 C 4.988281 -4.160156 3.851562 -5.753906 3.03125 -7.671875 C 2.207031 -9.597656 1.796875 -11.851562 1.796875 -14.4375 C 1.796875 -16.976562 2.207031 -19.160156 3.03125 -20.984375 C 3.851562 -22.816406 4.9375 -24.316406 6.28125 -25.484375 C 7.632812 -26.660156 9.175781 -27.523438 10.90625 -28.078125 C 12.644531 -28.640625 14.414062 -28.921875 16.21875 -28.921875 C 18.257812 -28.921875 20.117188 -28.613281 21.796875 -28 C 23.472656 -27.382812 24.914062 -26.535156 26.125 -25.453125 C 27.332031 -24.378906 28.273438 -23.09375 28.953125 -21.59375 C 29.628906 -20.09375 29.96875 -18.457031 29.96875 -16.6875 C 29.96875 -15.375 29.597656 -14.367188 28.859375 -13.671875 C 28.128906 -12.984375 27.113281 -12.546875 25.8125 -12.359375 L 11.546875 -10.21875 C 11.972656 -8.945312 12.835938 -7.992188 14.140625 -7.359375 C 15.453125 -6.722656 16.953125 -6.40625 18.640625 -6.40625 C 20.222656 -6.40625 21.71875 -6.609375 23.125 -7.015625 C 24.53125 -7.421875 25.675781 -7.890625 26.5625 -8.421875 C 27.175781 -8.046875 27.691406 -7.507812 28.109375 -6.8125 C 28.535156 -6.125 28.75 -5.394531 28.75 -4.625 C 28.75 -2.882812 27.941406 -1.59375 26.328125 -0.75 C 25.097656 -0.09375 23.710938 0.347656 22.171875 0.578125 C 20.628906 0.804688 19.1875 0.921875 17.84375 0.921875 Z M 16.21875 -21.765625 C 15.300781 -21.765625 14.503906 -21.609375 13.828125 -21.296875 C 13.148438 -20.992188 12.597656 -20.601562 12.171875 -20.125 C 11.753906 -19.644531 11.4375 -19.101562 11.21875 -18.5 C 11.007812 -17.90625 10.890625 -17.300781 10.859375 -16.6875 L 20.734375 -18.296875 C 20.609375 -19.066406 20.179688 -19.835938 19.453125 -20.609375 C 18.722656 -21.378906 17.644531 -21.765625 16.21875 -21.765625 Z M 16.21875 -21.765625" transform="translate(169.23 492.432)"/></g></g></g><g><g><g><path d="M 2.015625 -17.546875 C 2.015625 -20.546875 2.484375 -23.203125 3.421875 -25.515625 C 4.367188 -27.828125 5.660156 -29.757812 7.296875 -31.3125 C 8.929688 -32.875 10.851562 -34.054688 13.0625 -34.859375 C 15.28125 -35.671875 17.679688 -36.078125 20.265625 -36.078125 C 22.847656 -36.078125 25.242188 -35.671875 27.453125 -34.859375 C 29.660156 -34.054688 31.59375 -32.875 33.25 -31.3125 C 34.90625 -29.757812 36.203125 -27.828125 37.140625 -25.515625 C 38.085938 -23.203125 38.5625 -20.546875 38.5625 -17.546875 C 38.5625 -14.546875 38.097656 -11.878906 37.171875 -9.546875 C 36.253906 -7.222656 34.976562 -5.28125 33.34375 -3.71875 C 31.707031 -2.164062 29.769531 -0.984375 27.53125 -0.171875 C 25.300781 0.640625 22.878906 1.046875 20.265625 1.046875 C 17.648438 1.046875 15.222656 0.632812 12.984375 -0.1875 C 10.753906 -1.019531 8.832031 -2.222656 7.21875 -3.796875 C 5.601562 -5.378906 4.332031 -7.328125 3.40625 -9.640625 C 2.476562 -11.953125 2.015625 -14.585938 2.015625 -17.546875 Z M 12.40625 -17.546875 C 12.40625 -14.046875 13.117188 -11.425781 14.546875 -9.6875 C 15.972656 -7.957031 17.878906 -7.09375 20.265625 -7.09375 C 22.691406 -7.09375 24.613281 -7.957031 26.03125 -9.6875 C 27.457031 -11.425781 28.171875 -14.046875 28.171875 -17.546875 C 28.171875 -21.015625 27.46875 -23.613281 26.0625 -25.34375 C 24.65625 -27.070312 22.742188 -27.9375 20.328125 -27.9375 C 17.941406 -27.9375 16.023438 -27.082031 14.578125 -25.375 C 13.128906 -23.664062 12.40625 -21.054688 12.40625 -17.546875 Z M 12.40625 -17.546875" transform="translate(212.47 492.432)"/></g></g></g><g><g><g><path d="M 3.125 -28.0625 C 3.125 -30.019531 3.457031 -31.703125 4.125 -33.109375 C 4.800781 -34.515625 5.71875 -35.671875 6.875 -36.578125 C 8.03125 -37.484375 9.382812 -38.144531 10.9375 -38.5625 C 12.5 -38.988281 14.164062 -39.203125 15.9375 -39.203125 C 18.78125 -39.203125 20.875 -38.828125 22.21875 -38.078125 C 23.570312 -37.328125 24.25 -36.046875 24.25 -34.234375 C 24.25 -33.460938 24.082031 -32.769531 23.75 -32.15625 C 23.425781 -31.539062 23.070312 -31.078125 22.6875 -30.765625 C 21.957031 -30.960938 21.195312 -31.128906 20.40625 -31.265625 C 19.613281 -31.398438 18.703125 -31.46875 17.671875 -31.46875 C 16.015625 -31.46875 14.722656 -31.1875 13.796875 -30.625 C 12.867188 -30.070312 12.40625 -29.101562 12.40625 -27.71875 L 12.40625 -25.859375 L 21.875 -25.859375 C 22.113281 -25.441406 22.335938 -24.914062 22.546875 -24.28125 C 22.753906 -23.644531 22.859375 -22.941406 22.859375 -22.171875 C 22.859375 -20.828125 22.5625 -19.851562 21.96875 -19.25 C 21.375 -18.65625 20.578125 -18.359375 19.578125 -18.359375 L 12.9375 -18.359375 L 12.9375 -0.0625 C 12.550781 0.0507812 11.941406 0.164062 11.109375 0.28125 C 10.285156 0.40625 9.429688 0.46875 8.546875 0.46875 C 7.703125 0.46875 6.941406 0.40625 6.265625 0.28125 C 5.585938 0.164062 5.019531 -0.0625 4.5625 -0.40625 C 4.101562 -0.75 3.75 -1.21875 3.5 -1.8125 C 3.25 -2.414062 3.125 -3.195312 3.125 -4.15625 Z M 3.125 -28.0625" transform="translate(253.057 492.432)"/></g></g></g><g><g><g><path d="M 3.125 -28.0625 C 3.125 -30.019531 3.457031 -31.703125 4.125 -33.109375 C 4.800781 -34.515625 5.71875 -35.671875 6.875 -36.578125 C 8.03125 -37.484375 9.382812 -38.144531 10.9375 -38.5625 C 12.5 -38.988281 14.164062 -39.203125 15.9375 -39.203125 C 18.78125 -39.203125 20.875 -38.828125 22.21875 -38.078125 C 23.570312 -37.328125 24.25 -36.046875 24.25 -34.234375 C 24.25 -33.460938 24.082031 -32.769531 23.75 -32.15625 C 23.425781 -31.539062 23.070312 -31.078125 22.6875 -30.765625 C 21.957031 -30.960938 21.195312 -31.128906 20.40625 -31.265625 C 19.613281 -31.398438 18.703125 -31.46875 17.671875 -31.46875 C 16.015625 -31.46875 14.722656 -31.1875 13.796875 -30.625 C 12.867188 -30.070312 12.40625 -29.101562 12.40625 -27.71875 L 12.40625 -25.859375 L 21.875 -25.859375 C 22.113281 -25.441406 22.335938 -24.914062 22.546875 -24.28125 C 22.753906 -23.644531 22.859375 -22.941406 22.859375 -22.171875 C 22.859375 -20.828125 22.5625 -19.851562 21.96875 -19.25 C 21.375 -18.65625 20.578125 -18.359375 19.578125 -18.359375 L 12.9375 -18.359375 L 12.9375 -0.0625 C 12.550781 0.0507812 11.941406 0.164062 11.109375 0.28125 C 10.285156 0.40625 9.429688 0.46875 8.546875 0.46875 C 7.703125 0.46875 6.941406 0.40625 6.265625 0.28125 C 5.585938 0.164062 5.019531 -0.0625 4.5625 -0.40625 C 4.101562 -0.75 3.75 -1.21875 3.5 -1.8125 C 3.25 -2.414062 3.125 -3.195312 3.125 -4.15625 Z M 3.125 -28.0625" transform="translate(277.882 492.432)"/></g></g></g><g><g><g><path d="M 12.984375 -0.0625 C 12.566406 0.0195312 11.941406 0.128906 11.109375 0.265625 C 10.285156 0.398438 9.453125 0.46875 8.609375 0.46875 C 7.753906 0.46875 6.988281 0.40625 6.3125 0.28125 C 5.644531 0.164062 5.078125 -0.0625 4.609375 -0.40625 C 4.148438 -0.75 3.796875 -1.21875 3.546875 -1.8125 C 3.296875 -2.414062 3.171875 -3.195312 3.171875 -4.15625 L 3.171875 -37.640625 C 3.597656 -37.722656 4.222656 -37.828125 5.046875 -37.953125 C 5.878906 -38.085938 6.71875 -38.15625 7.5625 -38.15625 C 8.40625 -38.15625 9.164062 -38.097656 9.84375 -37.984375 C 10.519531 -37.867188 11.085938 -37.640625 11.546875 -37.296875 C 12.003906 -36.953125 12.359375 -36.476562 12.609375 -35.875 C 12.859375 -35.28125 12.984375 -34.503906 12.984375 -33.546875 Z M 12.984375 -0.0625" transform="translate(302.707 492.432)"/></g></g></g><g><g><g><path d="M 2.765625 -35.859375 C 2.765625 -37.316406 3.253906 -38.546875 4.234375 -39.546875 C 5.222656 -40.546875 6.523438 -41.046875 8.140625 -41.046875 C 9.753906 -41.046875 11.050781 -40.546875 12.03125 -39.546875 C 13.019531 -38.546875 13.515625 -37.316406 13.515625 -35.859375 C 13.515625 -34.390625 13.019531 -33.15625 12.03125 -32.15625 C 11.050781 -31.15625 9.753906 -30.65625 8.140625 -30.65625 C 6.523438 -30.65625 5.222656 -31.15625 4.234375 -32.15625 C 3.253906 -33.15625 2.765625 -34.390625 2.765625 -35.859375 Z M 13.046875 -0.0625 C 12.617188 0.0195312 11.992188 0.128906 11.171875 0.265625 C 10.347656 0.398438 9.507812 0.46875 8.65625 0.46875 C 7.8125 0.46875 7.050781 0.40625 6.375 0.28125 C 5.707031 0.164062 5.140625 -0.0625 4.671875 -0.40625 C 4.210938 -0.75 3.859375 -1.21875 3.609375 -1.8125 C 3.359375 -2.414062 3.234375 -3.195312 3.234375 -4.15625 L 3.234375 -27.65625 C 3.660156 -27.726562 4.285156 -27.832031 5.109375 -27.96875 C 5.929688 -28.101562 6.769531 -28.171875 7.625 -28.171875 C 8.46875 -28.171875 9.222656 -28.113281 9.890625 -28 C 10.566406 -27.882812 11.132812 -27.648438 11.59375 -27.296875 C 12.0625 -26.953125 12.421875 -26.484375 12.671875 -25.890625 C 12.921875 -25.296875 13.046875 -24.519531 13.046875 -23.5625 Z M 13.046875 -0.0625" transform="translate(318.872 492.432)"/></g></g></g><g><g><g><path d="M 20.78125 -17.78125 C 20.78125 -18.976562 20.441406 -19.851562 19.765625 -20.40625 C 19.097656 -20.96875 18.1875 -21.25 17.03125 -21.25 C 16.257812 -21.25 15.5 -21.148438 14.75 -20.953125 C 14 -20.765625 13.351562 -20.476562 12.8125 -20.09375 L 12.8125 -0.0625 C 12.425781 0.0507812 11.816406 0.164062 10.984375 0.28125 C 10.160156 0.40625 9.304688 0.46875 8.421875 0.46875 C 7.578125 0.46875 6.816406 0.40625 6.140625 0.28125 C 5.472656 0.164062 4.90625 -0.0625 4.4375 -0.40625 C 3.976562 -0.75 3.625 -1.21875 3.375 -1.8125 C 3.125 -2.414062 3 -3.195312 3 -4.15625 L 3 -21.484375 C 3 -22.515625 3.21875 -23.359375 3.65625 -24.015625 C 4.101562 -24.671875 4.710938 -25.269531 5.484375 -25.8125 C 6.796875 -26.726562 8.441406 -27.472656 10.421875 -28.046875 C 12.398438 -28.628906 14.601562 -28.921875 17.03125 -28.921875 C 21.382812 -28.921875 24.734375 -27.96875 27.078125 -26.0625 C 29.421875 -24.15625 30.59375 -21.507812 30.59375 -18.125 L 30.59375 -0.0625 C 30.207031 0.0507812 29.601562 0.164062 28.78125 0.28125 C 27.957031 0.40625 27.101562 0.46875 26.21875 0.46875 C 25.363281 0.46875 24.597656 0.40625 23.921875 0.28125 C 23.253906 0.164062 22.6875 -0.0625 22.21875 -0.40625 C 21.757812 -0.75 21.40625 -1.21875 21.15625 -1.8125 C 20.90625 -2.414062 20.78125 -3.195312 20.78125 -4.15625 Z M 20.78125 -17.78125" transform="translate(335.153 492.432)"/></g></g></g><g><g><g><path d="M 17.84375 0.921875 C 15.570312 0.921875 13.460938 0.601562 11.515625 -0.03125 C 9.578125 -0.664062 7.882812 -1.617188 6.4375 -2.890625 C 4.988281 -4.160156 3.851562 -5.753906 3.03125 -7.671875 C 2.207031 -9.597656 1.796875 -11.851562 1.796875 -14.4375 C 1.796875 -16.976562 2.207031 -19.160156 3.03125 -20.984375 C 3.851562 -22.816406 4.9375 -24.316406 6.28125 -25.484375 C 7.632812 -26.660156 9.175781 -27.523438 10.90625 -28.078125 C 12.644531 -28.640625 14.414062 -28.921875 16.21875 -28.921875 C 18.257812 -28.921875 20.117188 -28.613281 21.796875 -28 C 23.472656 -27.382812 24.914062 -26.535156 26.125 -25.453125 C 27.332031 -24.378906 28.273438 -23.09375 28.953125 -21.59375 C 29.628906 -20.09375 29.96875 -18.457031 29.96875 -16.6875 C 29.96875 -15.375 29.597656 -14.367188 28.859375 -13.671875 C 28.128906 -12.984375 27.113281 -12.546875 25.8125 -12.359375 L 11.546875 -10.21875 C 11.972656 -8.945312 12.835938 -7.992188 14.140625 -7.359375 C 15.453125 -6.722656 16.953125 -6.40625 18.640625 -6.40625 C 20.222656 -6.40625 21.71875 -6.609375 23.125 -7.015625 C 24.53125 -7.421875 25.675781 -7.890625 26.5625 -8.421875 C 27.175781 -8.046875 27.691406 -7.507812 28.109375 -6.8125 C 28.535156 -6.125 28.75 -5.394531 28.75 -4.625 C 28.75 -2.882812 27.941406 -1.59375 26.328125 -0.75 C 25.097656 -0.09375 23.710938 0.347656 22.171875 0.578125 C 20.628906 0.804688 19.1875 0.921875 17.84375 0.921875 Z M 16.21875 -21.765625 C 15.300781 -21.765625 14.503906 -21.609375 13.828125 -21.296875 C 13.148438 -20.992188 12.597656 -20.601562 12.171875 -20.125 C 11.753906 -19.644531 11.4375 -19.101562 11.21875 -18.5 C 11.007812 -17.90625 10.890625 -17.300781 10.859375 -16.6875 L 20.734375 -18.296875 C 20.609375 -19.066406 20.179688 -19.835938 19.453125 -20.609375 C 18.722656 -21.378906 17.644531 -21.765625 16.21875 -21.765625 Z M 16.21875 -21.765625" transform="translate(368.81 492.432)"/></g></g></g><g><g><g><path d="M 13.6875 -33.484375 C 13.6875 -32.597656 13.664062 -31.316406 13.625 -29.640625 C 13.582031 -27.972656 13.503906 -26.164062 13.390625 -24.21875 C 13.273438 -22.269531 13.117188 -20.320312 12.921875 -18.375 C 12.734375 -16.4375 12.503906 -14.757812 12.234375 -13.34375 C 12.085938 -13.21875 11.859375 -13.097656 11.546875 -12.984375 C 11.234375 -12.867188 10.90625 -12.773438 10.5625 -12.703125 C 10.21875 -12.628906 9.867188 -12.570312 9.515625 -12.53125 C 9.171875 -12.488281 8.867188 -12.46875 8.609375 -12.46875 C 7.484375 -12.46875 6.546875 -12.640625 5.796875 -12.984375 C 5.046875 -13.335938 4.578125 -14.015625 4.390625 -15.015625 C 4.191406 -15.898438 4.023438 -17.242188 3.890625 -19.046875 C 3.753906 -20.859375 3.628906 -22.820312 3.515625 -24.9375 C 3.398438 -27.050781 3.3125 -29.148438 3.25 -31.234375 C 3.195312 -33.316406 3.171875 -35.085938 3.171875 -36.546875 C 3.941406 -36.972656 4.816406 -37.3125 5.796875 -37.5625 C 6.785156 -37.8125 7.757812 -37.9375 8.71875 -37.9375 C 10.289062 -37.9375 11.507812 -37.566406 12.375 -36.828125 C 13.25 -36.097656 13.6875 -34.984375 13.6875 -33.484375 Z M 3.0625 -4.390625 C 3.0625 -5.960938 3.550781 -7.257812 4.53125 -8.28125 C 5.507812 -9.300781 6.867188 -9.8125 8.609375 -9.8125 C 10.335938 -9.8125 11.691406 -9.300781 12.671875 -8.28125 C 13.648438 -7.257812 14.140625 -5.960938 14.140625 -4.390625 C 14.140625 -2.804688 13.648438 -1.503906 12.671875 -0.484375 C 11.691406 0.535156 10.335938 1.046875 8.609375 1.046875 C 6.867188 1.046875 5.507812 0.535156 4.53125 -0.484375 C 3.550781 -1.503906 3.0625 -2.804688 3.0625 -4.390625 Z M 3.0625 -4.390625" transform="translate(400.506 492.432)"/></g></g></g><g><g><g><path d="M 10.132812 0.351562 C 14.734375 0.351562 18.3125 -2.453125 19.1875 -6.703125 L 15.085938 -6.703125 C 14.359375 -4.703125 12.507812 -3.425781 10.207031 -3.425781 C 7.230469 -3.425781 5.128906 -5.601562 5.128906 -8.753906 C 5.128906 -11.90625 7.253906 -14.082031 10.230469 -14.082031 C 12.457031 -14.082031 14.285156 -12.882812 14.960938 -10.957031 L 19.0625 -10.957031 C 18.0625 -15.160156 14.558594 -17.859375 10.105469 -17.859375 C 4.804688 -17.859375 1.074219 -14.109375 1.074219 -8.753906 C 1.074219 -3.402344 4.804688 0.351562 10.132812 0.351562 Z M 10.132812 0.351562" transform="translate(40.033 577.447)"/></g></g></g><g><g><g><path d="M 1.902344 0 L 5.703125 0 L 5.703125 -6.902344 C 5.703125 -8.980469 6.855469 -10.230469 8.605469 -10.230469 C 10.230469 -10.230469 11.207031 -9.128906 11.207031 -7.203125 L 11.207031 0 L 15.007812 0 L 15.007812 -7.578125 C 15.007812 -11.230469 12.957031 -13.484375 9.554688 -13.484375 C 8.078125 -13.484375 6.703125 -13.03125 5.703125 -12.132812 L 5.703125 -18.511719 L 1.902344 -18.511719 Z M 1.902344 0" transform="translate(60.217 577.447)"/></g></g></g><g><g><g><path d="M 8.105469 0.351562 C 11.332031 0.351562 13.882812 -1.300781 15.035156 -4.078125 L 11.183594 -4.078125 C 10.554688 -3.203125 9.429688 -2.703125 8.179688 -2.703125 C 6.453125 -2.703125 5.101562 -3.675781 4.753906 -5.476562 L 15.285156 -5.476562 C 15.507812 -10.28125 12.65625 -13.484375 8.15625 -13.484375 C 3.902344 -13.484375 0.976562 -10.65625 0.976562 -6.578125 C 0.976562 -2.476562 3.878906 0.351562 8.105469 0.351562 Z M 4.777344 -7.878906 C 5.203125 -9.480469 6.503906 -10.457031 8.179688 -10.457031 C 9.929688 -10.457031 11.183594 -9.480469 11.605469 -7.878906 Z M 4.777344 -7.878906" transform="translate(76.875 577.447)"/></g></g></g><g><g><g><path d="M 8.15625 0.351562 C 11.855469 0.351562 14.632812 -1.824219 15.335938 -5.277344 L 11.632812 -5.277344 C 11.105469 -3.851562 9.804688 -2.925781 8.203125 -2.925781 C 6.152344 -2.925781 4.726562 -4.425781 4.726562 -6.578125 C 4.726562 -8.730469 6.152344 -10.230469 8.203125 -10.230469 C 9.707031 -10.230469 10.933594 -9.429688 11.558594 -8.105469 L 15.210938 -8.105469 C 14.609375 -11.355469 11.808594 -13.484375 8.15625 -13.484375 C 3.953125 -13.484375 0.976562 -10.605469 0.976562 -6.578125 C 0.976562 -2.527344 3.925781 0.351562 8.15625 0.351562 Z M 8.15625 0.351562" transform="translate(93.108 577.447)"/></g></g></g><g><g><g><path d="M 1.902344 0 L 5.703125 0 L 5.703125 -5.003906 L 7.753906 -5.003906 L 10.65625 0 L 15.085938 0 L 11.308594 -6.277344 C 12.007812 -6.902344 12.558594 -7.78125 12.984375 -8.957031 L 14.507812 -13.132812 L 10.40625 -13.132812 L 9.480469 -10.28125 C 8.980469 -8.804688 8.28125 -8.40625 6.679688 -8.40625 L 5.703125 -8.40625 L 5.703125 -18.511719 L 1.902344 -18.511719 Z M 1.902344 0" transform="translate(109.365 577.447)"/></g></g></g><g><g><g><path d="M 1.953125 5.003906 L 3.726562 5.003906 C 6.777344 5.003906 8.054688 4.253906 9.128906 1.550781 L 14.984375 -13.132812 L 10.90625 -13.132812 L 9.15625 -8.355469 L 7.953125 -5.003906 L 4.425781 -13.132812 L 0.226562 -13.132812 L 6.128906 -0.425781 L 5.980469 0.0234375 C 5.527344 1.324219 5.003906 1.726562 3.453125 1.726562 L 1.953125 1.726562 Z M 1.953125 5.003906" transform="translate(130.975 577.447)"/></g></g></g><g><g><g><path d="M 8.355469 0.351562 C 12.707031 0.351562 15.710938 -2.476562 15.710938 -6.578125 C 15.710938 -10.65625 12.707031 -13.484375 8.355469 -13.484375 C 3.976562 -13.484375 0.976562 -10.65625 0.976562 -6.578125 C 0.976562 -2.476562 3.976562 0.351562 8.355469 0.351562 Z M 4.726562 -6.578125 C 4.726562 -8.730469 6.230469 -10.230469 8.355469 -10.230469 C 10.480469 -10.230469 11.957031 -8.730469 11.957031 -6.578125 C 11.957031 -4.425781 10.480469 -2.925781 8.355469 -2.925781 C 6.230469 -2.925781 4.726562 -4.425781 4.726562 -6.578125 Z M 4.726562 -6.578125" transform="translate(146.157 577.447)"/></g></g></g><g><g><g><path d="M 7.128906 0.351562 C 8.855469 0.351562 10.40625 -0.25 11.457031 -1.476562 L 11.855469 0 L 14.683594 0 L 14.683594 -13.132812 L 10.882812 -13.132812 L 10.882812 -6.277344 C 10.882812 -4.203125 9.757812 -2.925781 8.03125 -2.925781 C 6.429688 -2.925781 5.453125 -4.050781 5.453125 -5.980469 L 5.453125 -13.132812 L 1.652344 -13.132812 L 1.652344 -5.601562 C 1.652344 -1.953125 3.726562 0.351562 7.128906 0.351562 Z M 7.128906 0.351562" transform="translate(162.84 577.447)"/></g></g></g><g><g><g><path d="M 1.902344 0 L 5.703125 0 L 5.703125 -5.804688 C 5.703125 -8.628906 7.03125 -9.679688 9.207031 -9.679688 L 10.65625 -9.679688 L 10.65625 -13.132812 L 9.230469 -13.132812 C 7.304688 -13.132812 6.078125 -12.609375 5.226562 -11.382812 L 4.726562 -13.132812 L 1.902344 -13.132812 Z M 1.902344 0" transform="translate(179.423 577.447)"/></g></g></g><g><g><g><path d="M 8.15625 0.351562 C 11.855469 0.351562 14.632812 -1.824219 15.335938 -5.277344 L 11.632812 -5.277344 C 11.105469 -3.851562 9.804688 -2.925781 8.203125 -2.925781 C 6.152344 -2.925781 4.726562 -4.425781 4.726562 -6.578125 C 4.726562 -8.730469 6.152344 -10.230469 8.203125 -10.230469 C 9.707031 -10.230469 10.933594 -9.429688 11.558594 -8.105469 L 15.210938 -8.105469 C 14.609375 -11.355469 11.808594 -13.484375 8.15625 -13.484375 C 3.953125 -13.484375 0.976562 -10.605469 0.976562 -6.578125 C 0.976562 -2.527344 3.925781 0.351562 8.15625 0.351562 Z M 8.15625 0.351562" transform="translate(196.806 577.447)"/></g></g></g><g><g><g><path d="M 8.355469 0.351562 C 12.707031 0.351562 15.710938 -2.476562 15.710938 -6.578125 C 15.710938 -10.65625 12.707031 -13.484375 8.355469 -13.484375 C 3.976562 -13.484375 0.976562 -10.65625 0.976562 -6.578125 C 0.976562 -2.476562 3.976562 0.351562 8.355469 0.351562 Z M 4.726562 -6.578125 C 4.726562 -8.730469 6.230469 -10.230469 8.355469 -10.230469 C 10.480469 -10.230469 11.957031 -8.730469 11.957031 -6.578125 C 11.957031 -4.425781 10.480469 -2.925781 8.355469 -2.925781 C 6.230469 -2.925781 4.726562 -4.425781 4.726562 -6.578125 Z M 4.726562 -6.578125" transform="translate(213.064 577.447)"/></g></g></g><g><g><g><path d="M 1.902344 0 L 5.703125 0 L 5.703125 -6.878906 C 5.703125 -8.957031 6.855469 -10.230469 8.605469 -10.230469 C 10.230469 -10.230469 11.207031 -9.082031 11.207031 -7.15625 L 11.207031 0 L 15.007812 0 L 15.007812 -7.554688 C 15.007812 -11.183594 12.933594 -13.484375 9.503906 -13.484375 C 7.753906 -13.484375 6.179688 -12.882812 5.128906 -11.65625 L 4.726562 -13.132812 L 1.902344 -13.132812 Z M 1.902344 0" transform="translate(229.746 577.447)"/></g></g></g><g><g><g><path d="M 1.902344 0 L 5.703125 0 L 5.703125 -6.878906 C 5.703125 -8.957031 6.855469 -10.230469 8.605469 -10.230469 C 10.230469 -10.230469 11.207031 -9.082031 11.207031 -7.15625 L 11.207031 0 L 15.007812 0 L 15.007812 -7.554688 C 15.007812 -11.183594 12.933594 -13.484375 9.503906 -13.484375 C 7.753906 -13.484375 6.179688 -12.882812 5.128906 -11.65625 L 4.726562 -13.132812 L 1.902344 -13.132812 Z M 1.902344 0" transform="translate(246.404 577.447)"/></g></g></g><g><g><g><path d="M 8.105469 0.351562 C 11.332031 0.351562 13.882812 -1.300781 15.035156 -4.078125 L 11.183594 -4.078125 C 10.554688 -3.203125 9.429688 -2.703125 8.179688 -2.703125 C 6.453125 -2.703125 5.101562 -3.675781 4.753906 -5.476562 L 15.285156 -5.476562 C 15.507812 -10.28125 12.65625 -13.484375 8.15625 -13.484375 C 3.902344 -13.484375 0.976562 -10.65625 0.976562 -6.578125 C 0.976562 -2.476562 3.878906 0.351562 8.105469 0.351562 Z M 4.777344 -7.878906 C 5.203125 -9.480469 6.503906 -10.457031 8.179688 -10.457031 C 9.929688 -10.457031 11.183594 -9.480469 11.605469 -7.878906 Z M 4.777344 -7.878906" transform="translate(263.062 577.447)"/></g></g></g><g><g><g><path d="M 8.15625 0.351562 C 11.855469 0.351562 14.632812 -1.824219 15.335938 -5.277344 L 11.632812 -5.277344 C 11.105469 -3.851562 9.804688 -2.925781 8.203125 -2.925781 C 6.152344 -2.925781 4.726562 -4.425781 4.726562 -6.578125 C 4.726562 -8.730469 6.152344 -10.230469 8.203125 -10.230469 C 9.707031 -10.230469 10.933594 -9.429688 11.558594 -8.105469 L 15.210938 -8.105469 C 14.609375 -11.355469 11.808594 -13.484375 8.15625 -13.484375 C 3.953125 -13.484375 0.976562 -10.605469 0.976562 -6.578125 C 0.976562 -2.527344 3.925781 0.351562 8.15625 0.351562 Z M 8.15625 0.351562" transform="translate(279.294 577.447)"/></g></g></g><g><g><g><path d="M 8.230469 0 L 10.632812 0 L 10.632812 -3.300781 L 9.054688 -3.300781 C 7.554688 -3.300781 6.855469 -4.027344 6.855469 -5.554688 L 6.855469 -10.03125 L 10.457031 -10.03125 L 10.457031 -13.132812 L 6.855469 -13.132812 L 6.855469 -16.535156 L 3.902344 -16.535156 L 3.675781 -14.835938 C 3.476562 -13.484375 3.101562 -13.132812 1.675781 -13.132812 L 0.5 -13.132812 L 0.5 -10.03125 L 3.050781 -10.03125 L 3.050781 -4.976562 C 3.050781 -1.777344 4.902344 0 8.230469 0 Z M 8.230469 0" transform="translate(295.552 577.447)"/></g></g></g><g><g><g><path d="M 1.902344 0 L 5.703125 0 L 5.703125 -13.132812 L 1.902344 -13.132812 Z M 1.351562 -17.386719 C 1.351562 -15.984375 2.351562 -15.007812 3.800781 -15.007812 C 5.253906 -15.007812 6.253906 -15.984375 6.253906 -17.386719 C 6.253906 -18.785156 5.253906 -19.761719 3.800781 -19.761719 C 2.351562 -19.761719 1.351562 -18.785156 1.351562 -17.386719 Z M 1.351562 -17.386719" transform="translate(307.232 577.447)"/></g></g></g><g><g><g><path d="M 8.355469 0.351562 C 12.707031 0.351562 15.710938 -2.476562 15.710938 -6.578125 C 15.710938 -10.65625 12.707031 -13.484375 8.355469 -13.484375 C 3.976562 -13.484375 0.976562 -10.65625 0.976562 -6.578125 C 0.976562 -2.476562 3.976562 0.351562 8.355469 0.351562 Z M 4.726562 -6.578125 C 4.726562 -8.730469 6.230469 -10.230469 8.355469 -10.230469 C 10.480469 -10.230469 11.957031 -8.730469 11.957031 -6.578125 C 11.957031 -4.425781 10.480469 -2.925781 8.355469 -2.925781 C 6.230469 -2.925781 4.726562 -4.425781 4.726562 -6.578125 Z M 4.726562 -6.578125" transform="translate(314.836 577.447)"/></g></g></g><g><g><g><path d="M 1.902344 0 L 5.703125 0 L 5.703125 -6.878906 C 5.703125 -8.957031 6.855469 -10.230469 8.605469 -10.230469 C 10.230469 -10.230469 11.207031 -9.082031 11.207031 -7.15625 L 11.207031 0 L 15.007812 0 L 15.007812 -7.554688 C 15.007812 -11.183594 12.933594 -13.484375 9.503906 -13.484375 C 7.753906 -13.484375 6.179688 -12.882812 5.128906 -11.65625 L 4.726562 -13.132812 L 1.902344 -13.132812 Z M 1.902344 0" transform="translate(331.519 577.447)"/></g></g></g><g><g><g><path d="M 6.277344 0.25 C 8.230469 0.25 9.832031 -0.375 10.957031 -1.527344 L 11.382812 0 L 14.207031 0 L 14.207031 -7.90625 C 14.207031 -11.382812 11.855469 -13.484375 7.929688 -13.484375 C 4.578125 -13.484375 2.375 -11.882812 1.902344 -9.03125 L 5.554688 -9.03125 C 5.777344 -9.957031 6.730469 -10.582031 7.953125 -10.582031 C 9.457031 -10.582031 10.480469 -9.730469 10.480469 -8.429688 L 10.480469 -7.828125 L 5.730469 -7.828125 C 3 -7.828125 1.25 -6.253906 1.25 -3.828125 C 1.25 -1.300781 3.175781 0.25 6.277344 0.25 Z M 5.003906 -3.976562 C 5.003906 -4.878906 5.753906 -5.453125 6.902344 -5.453125 L 10.507812 -5.453125 C 10.429688 -3.675781 9.054688 -2.476562 7.15625 -2.476562 C 5.855469 -2.476562 5.003906 -3.078125 5.003906 -3.976562 Z M 5.003906 -3.976562" transform="translate(354.054 577.447)"/></g></g></g><g><g><g><path d="M 1.902344 0 L 5.703125 0 L 5.703125 -6.878906 C 5.703125 -8.957031 6.855469 -10.230469 8.605469 -10.230469 C 10.230469 -10.230469 11.207031 -9.082031 11.207031 -7.15625 L 11.207031 0 L 15.007812 0 L 15.007812 -7.554688 C 15.007812 -11.183594 12.933594 -13.484375 9.503906 -13.484375 C 7.753906 -13.484375 6.179688 -12.882812 5.128906 -11.65625 L 4.726562 -13.132812 L 1.902344 -13.132812 Z M 1.902344 0" transform="translate(369.912 577.447)"/></g></g></g><g><g><g><path d="M 7.65625 0.351562 C 9.554688 0.351562 11.183594 -0.324219 12.359375 -1.5 L 12.808594 0 L 15.632812 0 L 15.632812 -18.511719 L 11.832031 -18.511719 L 11.832031 -12.109375 C 10.707031 -12.984375 9.28125 -13.484375 7.65625 -13.484375 C 3.753906 -13.484375 0.976562 -10.605469 0.976562 -6.578125 C 0.976562 -2.5 3.753906 0.351562 7.65625 0.351562 Z M 4.726562 -6.578125 C 4.726562 -8.707031 6.203125 -10.230469 8.355469 -10.230469 C 10.480469 -10.230469 11.957031 -8.707031 11.957031 -6.578125 C 11.957031 -4.425781 10.480469 -2.925781 8.355469 -2.925781 C 6.203125 -2.925781 4.726562 -4.425781 4.726562 -6.578125 Z M 4.726562 -6.578125" transform="translate(386.57 577.447)"/></g></g></g><g><g><g><path d="M 1.902344 0 L 5.703125 0 L 5.703125 -5.804688 C 5.703125 -8.628906 7.03125 -9.679688 9.207031 -9.679688 L 10.65625 -9.679688 L 10.65625 -13.132812 L 9.230469 -13.132812 C 7.304688 -13.132812 6.078125 -12.609375 5.226562 -11.382812 L 4.726562 -13.132812 L 1.902344 -13.132812 Z M 1.902344 0" transform="translate(109.084 611.92)"/></g></g></g><g><g><g><path d="M 8.105469 0.351562 C 11.332031 0.351562 13.882812 -1.300781 15.035156 -4.078125 L 11.183594 -4.078125 C 10.554688 -3.203125 9.429688 -2.703125 8.179688 -2.703125 C 6.453125 -2.703125 5.101562 -3.675781 4.753906 -5.476562 L 15.285156 -5.476562 C 15.507812 -10.28125 12.65625 -13.484375 8.15625 -13.484375 C 3.902344 -13.484375 0.976562 -10.65625 0.976562 -6.578125 C 0.976562 -2.476562 3.878906 0.351562 8.105469 0.351562 Z M 4.777344 -7.878906 C 5.203125 -9.480469 6.503906 -10.457031 8.179688 -10.457031 C 9.929688 -10.457031 11.183594 -9.480469 11.605469 -7.878906 Z M 4.777344 -7.878906" transform="translate(120.59 611.92)"/></g></g></g><g><g><g><path d="M 3.203125 -14.183594 L 3.203125 -13.132812 L 0.574219 -13.132812 L 0.574219 -10.03125 L 3.203125 -10.03125 L 3.203125 0 L 7.003906 0 L 7.003906 -10.03125 L 10.855469 -10.03125 L 10.855469 -13.132812 L 6.929688 -13.132812 L 6.929688 -13.984375 C 6.929688 -15.359375 7.53125 -15.984375 8.90625 -15.984375 L 10.980469 -15.984375 L 10.980469 -18.988281 L 8.078125 -18.988281 C 4.929688 -18.988281 3.203125 -17.285156 3.203125 -14.183594 Z M 3.203125 -14.183594" transform="translate(136.822 611.92)"/></g></g></g><g><g><g><path d="M 1.902344 0 L 5.703125 0 L 5.703125 -5.804688 C 5.703125 -8.628906 7.03125 -9.679688 9.207031 -9.679688 L 10.65625 -9.679688 L 10.65625 -13.132812 L 9.230469 -13.132812 C 7.304688 -13.132812 6.078125 -12.609375 5.226562 -11.382812 L 4.726562 -13.132812 L 1.902344 -13.132812 Z M 1.902344 0" transform="translate(148.052 611.92)"/></g></g></g><g><g><g><path d="M 8.105469 0.351562 C 11.332031 0.351562 13.882812 -1.300781 15.035156 -4.078125 L 11.183594 -4.078125 C 10.554688 -3.203125 9.429688 -2.703125 8.179688 -2.703125 C 6.453125 -2.703125 5.101562 -3.675781 4.753906 -5.476562 L 15.285156 -5.476562 C 15.507812 -10.28125 12.65625 -13.484375 8.15625 -13.484375 C 3.902344 -13.484375 0.976562 -10.65625 0.976562 -6.578125 C 0.976562 -2.476562 3.878906 0.351562 8.105469 0.351562 Z M 4.777344 -7.878906 C 5.203125 -9.480469 6.503906 -10.457031 8.179688 -10.457031 C 9.929688 -10.457031 11.183594 -9.480469 11.605469 -7.878906 Z M 4.777344 -7.878906" transform="translate(159.558 611.92)"/></g></g></g><g><g><g><path d="M 6.953125 0.351562 C 10.507812 0.351562 12.65625 -1.199219 12.65625 -3.703125 C 12.65625 -5.855469 11.058594 -7.230469 7.804688 -7.878906 C 5.554688 -8.332031 4.851562 -8.707031 4.851562 -9.503906 C 4.851562 -10.28125 5.554688 -10.730469 6.679688 -10.730469 C 7.953125 -10.730469 8.730469 -10.15625 8.804688 -9.15625 L 12.433594 -9.15625 C 12.257812 -11.933594 10.207031 -13.484375 6.703125 -13.484375 C 3.175781 -13.484375 1.175781 -12.058594 1.175781 -9.503906 C 1.175781 -7.328125 2.675781 -6.027344 6.027344 -5.429688 C 8.054688 -5.078125 8.90625 -4.554688 8.90625 -3.726562 C 8.90625 -2.953125 8.203125 -2.476562 7.003906 -2.476562 C 5.601562 -2.476562 4.753906 -3.152344 4.726562 -4.226562 L 1 -4.226562 C 1 -1.476562 3.351562 0.351562 6.953125 0.351562 Z M 6.953125 0.351562" transform="translate(175.79 611.92)"/></g></g></g><g><g><g><path d="M 1.902344 0 L 5.703125 0 L 5.703125 -6.902344 C 5.703125 -8.980469 6.855469 -10.230469 8.605469 -10.230469 C 10.230469 -10.230469 11.207031 -9.128906 11.207031 -7.203125 L 11.207031 0 L 15.007812 0 L 15.007812 -7.578125 C 15.007812 -11.230469 12.957031 -13.484375 9.554688 -13.484375 C 8.078125 -13.484375 6.703125 -13.03125 5.703125 -12.132812 L 5.703125 -18.511719 L 1.902344 -18.511719 Z M 1.902344 0" transform="translate(189.472 611.92)"/></g></g></g><g><g><g><path d="M 8.230469 0 L 10.632812 0 L 10.632812 -3.300781 L 9.054688 -3.300781 C 7.554688 -3.300781 6.855469 -4.027344 6.855469 -5.554688 L 6.855469 -10.03125 L 10.457031 -10.03125 L 10.457031 -13.132812 L 6.855469 -13.132812 L 6.855469 -16.535156 L 3.902344 -16.535156 L 3.675781 -14.835938 C 3.476562 -13.484375 3.101562 -13.132812 1.675781 -13.132812 L 0.5 -13.132812 L 0.5 -10.03125 L 3.050781 -10.03125 L 3.050781 -4.976562 C 3.050781 -1.777344 4.902344 0 8.230469 0 Z M 8.230469 0" transform="translate(212.007 611.92)"/></g></g></g><g><g><g><path d="M 1.902344 0 L 5.703125 0 L 5.703125 -6.902344 C 5.703125 -8.980469 6.855469 -10.230469 8.605469 -10.230469 C 10.230469 -10.230469 11.207031 -9.128906 11.207031 -7.203125 L 11.207031 0 L 15.007812 0 L 15.007812 -7.578125 C 15.007812 -11.230469 12.957031 -13.484375 9.554688 -13.484375 C 8.078125 -13.484375 6.703125 -13.03125 5.703125 -12.132812 L 5.703125 -18.511719 L 1.902344 -18.511719 Z M 1.902344 0" transform="translate(223.688 611.92)"/></g></g></g><g><g><g><path d="M 1.902344 0 L 5.703125 0 L 5.703125 -13.132812 L 1.902344 -13.132812 Z M 1.351562 -17.386719 C 1.351562 -15.984375 2.351562 -15.007812 3.800781 -15.007812 C 5.253906 -15.007812 6.253906 -15.984375 6.253906 -17.386719 C 6.253906 -18.785156 5.253906 -19.761719 3.800781 -19.761719 C 2.351562 -19.761719 1.351562 -18.785156 1.351562 -17.386719 Z M 1.351562 -17.386719" transform="translate(240.345 611.92)"/></g></g></g><g><g><g><path d="M 6.953125 0.351562 C 10.507812 0.351562 12.65625 -1.199219 12.65625 -3.703125 C 12.65625 -5.855469 11.058594 -7.230469 7.804688 -7.878906 C 5.554688 -8.332031 4.851562 -8.707031 4.851562 -9.503906 C 4.851562 -10.28125 5.554688 -10.730469 6.679688 -10.730469 C 7.953125 -10.730469 8.730469 -10.15625 8.804688 -9.15625 L 12.433594 -9.15625 C 12.257812 -11.933594 10.207031 -13.484375 6.703125 -13.484375 C 3.175781 -13.484375 1.175781 -12.058594 1.175781 -9.503906 C 1.175781 -7.328125 2.675781 -6.027344 6.027344 -5.429688 C 8.054688 -5.078125 8.90625 -4.554688 8.90625 -3.726562 C 8.90625 -2.953125 8.203125 -2.476562 7.003906 -2.476562 C 5.601562 -2.476562 4.753906 -3.152344 4.726562 -4.226562 L 1 -4.226562 C 1 -1.476562 3.351562 0.351562 6.953125 0.351562 Z M 6.953125 0.351562" transform="translate(247.949 611.92)"/></g></g></g><g><g><g><path d="M 9.855469 0.351562 C 13.785156 0.351562 16.558594 -2.5 16.558594 -6.578125 C 16.558594 -10.605469 13.785156 -13.484375 9.855469 -13.484375 C 7.953125 -13.484375 6.328125 -12.808594 5.152344 -11.632812 L 4.726562 -13.132812 L 1.902344 -13.132812 L 1.902344 5.003906 L 5.703125 5.003906 L 5.703125 -1.027344 C 6.804688 -0.148438 8.230469 0.351562 9.855469 0.351562 Z M 5.554688 -6.578125 C 5.554688 -8.707031 7.054688 -10.230469 9.179688 -10.230469 C 11.332031 -10.230469 12.808594 -8.707031 12.808594 -6.578125 C 12.808594 -4.425781 11.332031 -2.925781 9.179688 -2.925781 C 7.054688 -2.925781 5.554688 -4.425781 5.554688 -6.578125 Z M 5.554688 -6.578125" transform="translate(267.508 611.92)"/></g></g></g><g><g><g><path d="M 6.277344 0.25 C 8.230469 0.25 9.832031 -0.375 10.957031 -1.527344 L 11.382812 0 L 14.207031 0 L 14.207031 -7.90625 C 14.207031 -11.382812 11.855469 -13.484375 7.929688 -13.484375 C 4.578125 -13.484375 2.375 -11.882812 1.902344 -9.03125 L 5.554688 -9.03125 C 5.777344 -9.957031 6.730469 -10.582031 7.953125 -10.582031 C 9.457031 -10.582031 10.480469 -9.730469 10.480469 -8.429688 L 10.480469 -7.828125 L 5.730469 -7.828125 C 3 -7.828125 1.25 -6.253906 1.25 -3.828125 C 1.25 -1.300781 3.175781 0.25 6.277344 0.25 Z M 5.003906 -3.976562 C 5.003906 -4.878906 5.753906 -5.453125 6.902344 -5.453125 L 10.507812 -5.453125 C 10.429688 -3.675781 9.054688 -2.476562 7.15625 -2.476562 C 5.855469 -2.476562 5.003906 -3.078125 5.003906 -3.976562 Z M 5.003906 -3.976562" transform="translate(285.041 611.92)"/></g></g></g><g><g><g><path d="M 8.304688 5.554688 C 12.507812 5.554688 15.183594 3.203125 15.183594 -0.726562 L 15.183594 -13.132812 L 12.359375 -13.132812 L 11.957031 -11.683594 C 10.808594 -12.832031 9.207031 -13.484375 7.328125 -13.484375 C 3.628906 -13.484375 0.976562 -10.757812 0.976562 -6.929688 C 0.976562 -3.078125 3.628906 -0.351562 7.328125 -0.351562 C 8.90625 -0.351562 10.304688 -0.824219 11.382812 -1.652344 L 11.382812 -0.726562 C 11.382812 1.402344 10.304688 2.476562 8.230469 2.476562 C 6.652344 2.476562 5.601562 1.824219 5.328125 0.675781 L 1.625 0.675781 C 1.953125 3.703125 4.503906 5.554688 8.304688 5.554688 Z M 4.726562 -6.929688 C 4.726562 -8.929688 6.128906 -10.332031 8.128906 -10.332031 C 10.132812 -10.332031 11.558594 -8.929688 11.558594 -6.929688 C 11.558594 -4.902344 10.132812 -3.503906 8.128906 -3.503906 C 6.128906 -3.503906 4.726562 -4.902344 4.726562 -6.929688 Z M 4.726562 -6.929688" transform="translate(300.899 611.92)"/></g></g></g><g><g><g><path d="M 8.105469 0.351562 C 11.332031 0.351562 13.882812 -1.300781 15.035156 -4.078125 L 11.183594 -4.078125 C 10.554688 -3.203125 9.429688 -2.703125 8.179688 -2.703125 C 6.453125 -2.703125 5.101562 -3.675781 4.753906 -5.476562 L 15.285156 -5.476562 C 15.507812 -10.28125 12.65625 -13.484375 8.15625 -13.484375 C 3.902344 -13.484375 0.976562 -10.65625 0.976562 -6.578125 C 0.976562 -2.476562 3.878906 0.351562 8.105469 0.351562 Z M 4.777344 -7.878906 C 5.203125 -9.480469 6.503906 -10.457031 8.179688 -10.457031 C 9.929688 -10.457031 11.183594 -9.480469 11.605469 -7.878906 Z M 4.777344 -7.878906" transform="translate(318.007 611.92)"/></g></g></g><g><g><g><path d="M 3.351562 0.273438 C 4.703125 0.273438 5.679688 -0.675781 5.679688 -1.976562 C 5.679688 -3.277344 4.703125 -4.253906 3.351562 -4.253906 C 1.976562 -4.253906 1.027344 -3.277344 1.027344 -1.976562 C 1.027344 -0.675781 1.976562 0.273438 3.351562 0.273438 Z M 3.351562 0.273438" transform="translate(334.24 611.92)"/></g></g></g></svg>