<svg xmlns="http://www.w3.org/2000/svg" width="92.25" viewBox="0 0 92.25 64.5" height="64.5" version="1.0"><defs><clipPath id="a"><path d="M 0.289062 0.0117188 L 91.050781 0.0117188 L 91.050781 63.992188 L 0.289062 63.992188 Z M 0.289062 0.0117188"/></clipPath></defs><g clip-path="url(#a)"><path fill="#F00" d="M 89.070312 10.046875 C 88.808594 9.082031 88.429688 8.167969 87.929688 7.304688 C 87.429688 6.4375 86.824219 5.652344 86.121094 4.945312 C 85.414062 4.242188 84.632812 3.636719 83.769531 3.136719 C 82.90625 2.636719 81.992188 2.253906 81.03125 1.992188 C 73.984375 0.0664062 45.613281 0.0664062 45.613281 0.0664062 C 45.613281 0.0664062 17.242188 0.121094 10.195312 2.050781 C 9.230469 2.3125 8.320312 2.691406 7.457031 3.191406 C 6.59375 3.695312 5.808594 4.296875 5.101562 5.003906 C 4.398438 5.710938 3.796875 6.496094 3.296875 7.359375 C 2.796875 8.226562 2.414062 9.140625 2.152344 10.101562 C 0.289062 17.164062 0.289062 31.929688 0.289062 31.929688 C 0.289062 31.929688 0.289062 46.695312 2.210938 53.816406 C 2.472656 54.78125 2.855469 55.695312 3.355469 56.558594 C 3.855469 57.421875 4.457031 58.207031 5.160156 58.914062 C 5.867188 59.621094 6.652344 60.226562 7.515625 60.726562 C 8.375 61.226562 9.289062 61.609375 10.25 61.871094 C 17.300781 63.796875 45.671875 63.796875 45.671875 63.796875 C 45.671875 63.796875 74.039062 63.796875 81.089844 61.871094 C 82.054688 61.609375 82.964844 61.226562 83.828125 60.726562 C 84.691406 60.226562 85.476562 59.621094 86.179688 58.917969 C 86.886719 58.210938 87.488281 57.425781 87.988281 56.558594 C 88.488281 55.695312 88.867188 54.78125 89.128906 53.816406 C 91.050781 46.753906 91.050781 31.929688 91.050781 31.929688 C 91.050781 31.929688 90.996094 17.164062 89.070312 10.046875 Z M 89.070312 10.046875"/></g><path fill="#FFF" d="M 36.582031 45.585938 L 60.117188 31.929688 L 36.582031 18.273438 Z M 36.582031 45.585938"/></svg>